<svg width="23" height="24" viewBox="0 0 23 24" fill="none" xmlns="http://www.w3.org/2000/svg">
<g id="hugeicons:payment-success-01">
<g id="Group">
<path id="Vector" d="M13.375 18.0939C13.375 18.0939 14.3125 18.0939 15.25 19.9689C15.25 19.9689 18.2284 15.2814 20.875 14.3439M5.40625 11.5314H5.39781M10.5625 19.0314H10.0938C6.56969 19.0314 4.80813 19.0314 3.63156 18.1032C3.44459 17.9551 3.27081 17.7911 3.11219 17.6129C2.125 16.5067 2.125 14.8473 2.125 11.5314C2.125 8.21543 2.125 6.557 3.11219 5.44981C3.27031 5.27231 3.44344 5.10918 3.63156 4.96043C4.80813 4.03137 6.56969 4.03137 10.0938 4.03137H12.9062C16.4303 4.03137 18.1919 4.03137 19.3675 4.9595C19.5563 5.1095 19.7297 5.27293 19.8878 5.44981C20.7775 6.44731 20.8656 7.892 20.875 10.5939V11.0626" stroke="#1A1A1A" stroke-width="1.40625" stroke-linecap="round" stroke-linejoin="round"/>
<path id="Vector_2" d="M13.8438 11.5314C13.8438 12.153 13.5968 12.7491 13.1573 13.1887C12.7177 13.6282 12.1216 13.8751 11.5 13.8751C10.8784 13.8751 10.2823 13.6282 9.84272 13.1887C9.40318 12.7491 9.15625 12.153 9.15625 11.5314C9.15625 10.9098 9.40318 10.3136 9.84272 9.87409C10.2823 9.43455 10.8784 9.18762 11.5 9.18762C12.1216 9.18762 12.7177 9.43455 13.1573 9.87409C13.5968 10.3136 13.8438 10.9098 13.8438 11.5314Z" stroke="#1A1A1A" stroke-width="1.40625" stroke-linecap="round" stroke-linejoin="round"/>
</g>
</g>
</svg>
