<svg width="25" height="26" viewBox="0 0 25 26" fill="none" xmlns="http://www.w3.org/2000/svg">
<g id="iconoir:lot-of-cash">
<g id="Group">
<path id="Vector" d="M19.2682 15.0939L19.2786 15.0825M7.8099 15.0939L7.82031 15.0825M4.16406 19.2502V10.9168C4.16406 10.3643 4.38356 9.83439 4.77426 9.44369C5.16496 9.05299 5.69486 8.8335 6.2474 8.8335H20.8307C21.3833 8.8335 21.9132 9.05299 22.3039 9.44369C22.6946 9.83439 22.9141 10.3643 22.9141 10.9168V19.2502C22.9141 19.8027 22.6946 20.3326 22.3039 20.7233C21.9132 21.114 21.3833 21.3335 20.8307 21.3335H6.2474C5.69486 21.3335 5.16496 21.114 4.77426 20.7233C4.38356 20.3326 4.16406 19.8027 4.16406 19.2502Z" stroke="#1A1A1A" stroke-width="1.5625" stroke-linecap="round" stroke-linejoin="round"/>
<path id="Vector_2" d="M4.16406 17.1667H3.1224C2.56986 17.1667 2.03996 16.9473 1.64926 16.5566C1.25856 16.1659 1.03906 15.6359 1.03906 15.0834V6.75008C1.03906 6.19755 1.25856 5.66764 1.64926 5.27694C2.03996 4.88624 2.56986 4.66675 3.1224 4.66675H17.7057C18.2583 4.66675 18.7882 4.88624 19.1789 5.27694C19.5696 5.66764 19.7891 6.19755 19.7891 6.75008V8.83341M13.5391 17.1667C12.9865 17.1667 12.4566 16.9473 12.0659 16.5566C11.6752 16.1659 11.4557 15.6359 11.4557 15.0834C11.4557 14.5309 11.6752 14.001 12.0659 13.6103C12.4566 13.2196 12.9865 13.0001 13.5391 13.0001C14.0916 13.0001 14.6215 13.2196 15.0122 13.6103C15.4029 14.001 15.6224 14.5309 15.6224 15.0834C15.6224 15.6359 15.4029 16.1659 15.0122 16.5566C14.6215 16.9473 14.0916 17.1667 13.5391 17.1667Z" stroke="#1A1A1A" stroke-width="1.5625" stroke-linecap="round" stroke-linejoin="round"/>
</g>
</g>
</svg>
