<svg width="37" height="37" viewBox="0 0 37 37" fill="none" xmlns="http://www.w3.org/2000/svg">
<g id="cib:american-express" clip-path="url(#clip0_10928_30879)">
<path id="Vector" d="M24.4652 21.8797C24.4652 21.3993 24.2594 21.136 23.9489 20.9482C23.6327 20.767 23.2514 20.7423 22.7294 20.7423H20.4152V24.9723H21.4289V23.4322H22.5134C22.87 23.4322 23.0939 23.4682 23.2277 23.62C23.4089 23.8135 23.3864 24.1882 23.3864 24.4469V24.9689H24.3707V24.1364C24.3707 23.7618 24.3482 23.5739 24.2132 23.3624C24.0807 23.2038 23.9088 23.0828 23.7149 23.0114L23.743 22.999C24.0186 22.8944 24.4652 22.5535 24.4652 21.8797ZM23.158 22.4883L23.1164 22.4827C22.9814 22.5648 22.8239 22.5715 22.618 22.5715H21.4064V21.6277H22.6427C22.8239 21.6277 22.9994 21.6277 23.1411 21.7042C23.2119 21.7383 23.2709 21.7929 23.3103 21.8609C23.3498 21.9289 23.3681 22.0071 23.3627 22.0855C23.3627 22.2667 23.2919 22.4062 23.1636 22.4894L23.158 22.4883ZM30.8867 24.0655H28.9416V24.9689H30.8991C31.9116 24.9689 32.4741 24.5515 32.4741 23.6448C32.4741 23.2218 32.3751 22.9698 32.194 22.7718C31.9656 22.5727 31.6011 22.4782 31.0994 22.4613L30.5357 22.4377C30.3782 22.4377 30.2669 22.4377 30.1499 22.3915C30.0831 22.3706 30.025 22.3284 29.9846 22.2713C29.9441 22.2142 29.9235 22.1453 29.926 22.0754C29.926 21.9404 29.9496 21.829 30.061 21.7649C30.1861 21.695 30.3285 21.6622 30.4716 21.6704H32.311V20.7693H30.2894C29.2352 20.7693 28.8539 21.4252 28.8539 22.0293C28.8539 23.3827 30.0149 23.3118 30.9644 23.3354C31.1162 23.3354 31.2332 23.3579 31.2974 23.422C31.3682 23.4704 31.42 23.5807 31.42 23.692C31.42 23.809 31.3671 23.9204 31.303 23.962C31.2164 24.043 31.0814 24.0667 30.8879 24.0667L30.8867 24.0655ZM0.440875 0.311157V15.4582L1.65475 12.64H4.27937L4.618 13.3375V12.64H7.6825L8.35637 14.1689L9.01337 12.6524H18.7694C19.2092 12.6524 19.6064 12.739 19.9 13.009V12.6625H22.5831V13.009C23.0387 12.7514 23.608 12.6625 24.2582 12.6625H28.1654L28.5299 13.36V12.6625H31.4065L31.7856 13.36V12.6569H34.5756V18.5823H31.7451L31.2062 17.6789V18.5575H27.6726L27.2912 17.6137H26.4126L26.0087 18.5328H24.1919C23.4707 18.5328 22.9319 18.3809 22.5685 18.1762V18.5328H18.2316V17.2098C18.2316 17.0287 18.1911 17.0287 18.0797 17.0039H17.9211V18.5564H9.5365V17.842L9.22037 18.5564H7.47437L7.1695 17.842V18.5384H3.78887L3.4075 17.6013H2.5345L2.15537 18.5384H0.4375V36.31H36.1146V25.6462C35.7107 25.8498 35.1955 25.915 34.6555 25.915H32.0725V25.5337C31.7564 25.78 31.2175 25.915 30.7011 25.915H22.5032V24.5684C22.5032 24.3873 22.4729 24.3873 22.3221 24.3873H22.2107V25.9218H19.5096V24.3232C19.0641 24.529 18.5421 24.5448 18.1146 24.529H17.7985V25.9004H14.5304L13.7159 24.9734L12.8597 25.8768H7.55087V19.9818H12.9655L13.744 20.8852L14.5765 19.9818H18.1911C18.613 19.9818 19.2981 20.0302 19.603 20.3227V19.9593H22.8666C23.1715 19.9593 23.8341 20.0302 24.2256 20.2979V19.9413H29.1182V20.2979C29.3646 20.0515 29.8866 19.9413 30.3254 19.9413H33.1604V20.2979C33.454 20.0763 33.8579 19.9413 34.4204 19.9413H36.1844V0.312282L0.440875 0.311157ZM32.1749 22.7403C32.1805 22.7527 32.1805 22.7639 32.1872 22.7707C32.2052 22.7808 32.2277 22.7808 32.2401 22.7988L32.176 22.7459L32.1749 22.7403ZM36.1832 19.9345H36.2834V20.767H36.1832V19.9345ZM36.235 22.8573V22.8449C36.1945 22.81 36.1709 22.7763 36.1236 22.7403C35.902 22.5119 35.5375 22.4174 34.9806 22.4062L34.4361 22.3893C34.2606 22.3893 34.1492 22.3769 34.0322 22.3432C33.9656 22.3221 33.9076 22.2798 33.8672 22.2227C33.8268 22.1657 33.8061 22.0969 33.8084 22.027C33.8084 21.892 33.8545 21.7852 33.9434 21.721C34.0547 21.6569 34.165 21.6457 34.3472 21.6457H36.1821L36.1832 20.767H34.2606C33.2222 20.767 32.8195 21.4229 32.8195 22.027C32.8195 23.3737 33.9906 23.3095 34.9345 23.3332C35.0931 23.3332 35.2045 23.35 35.2686 23.4198C35.3395 23.4682 35.3856 23.5784 35.3856 23.6898C35.3848 23.742 35.3722 23.7934 35.3488 23.8401C35.3255 23.8869 35.2919 23.9278 35.2506 23.9598C35.1797 24.0408 35.0447 24.0644 34.8467 24.0644H32.9117V24.9723H34.8411C35.4722 24.9723 35.9425 24.7968 36.1945 24.4334H36.235C36.37 24.2275 36.4409 23.9823 36.4409 23.6493C36.4409 23.2848 36.37 23.0632 36.235 22.8573ZM28.3375 21.622V20.749H24.985V24.997H28.3375V24.1184H25.9806V23.269H28.279V22.3904H25.9806V21.6288L28.3375 21.622ZM20.7089 13.4883H21.7337V17.7138H20.7089V13.4883ZM20.1284 14.6257L20.116 14.638C20.116 14.1622 19.9225 13.8877 19.6064 13.7009C19.2835 13.513 18.9044 13.495 18.3947 13.495H16.0862V17.725H17.0987V16.1725H18.1776C18.5342 16.1725 18.7637 16.2187 18.91 16.3537C19.0934 16.5595 19.0686 16.9218 19.0686 17.1738V17.7082H20.0822V16.8813C20.0822 16.5067 20.0586 16.3188 19.9169 16.1017C19.7845 15.9458 19.6156 15.8253 19.4252 15.7507C19.6419 15.6549 19.8252 15.4967 19.9516 15.2963C20.0781 15.096 20.1419 14.8625 20.1351 14.6257H20.1284ZM18.8459 15.2185H18.8279C18.6872 15.2995 18.5342 15.3052 18.3295 15.3052H17.0931V14.368H18.3295C18.5106 14.368 18.6861 14.3737 18.8211 14.4445C18.9561 14.503 19.0495 14.638 19.0495 14.8192C19.0495 15.0003 18.9786 15.1477 18.8459 15.2185ZM24.3235 14.368H25.2674V13.4714H24.2999C23.608 13.4714 23.0984 13.63 22.771 13.9653C22.3435 14.4153 22.231 15.0014 22.231 15.6348C22.231 16.4032 22.4121 16.8824 22.771 17.2402C23.1164 17.5968 23.7374 17.7093 24.2234 17.7093H25.3967L25.7781 16.7654H27.8627L28.2554 17.7093H30.2939V14.5447L32.2052 17.7093H33.6351V13.4894H32.6035V16.4369L30.835 13.495H29.305V17.4089L27.6051 13.4253H26.0987L24.6869 16.7598H24.2357C23.9736 16.7598 23.6912 16.7137 23.5337 16.5539C23.3459 16.3323 23.2581 16.015 23.2581 15.5639C23.2581 15.1364 23.3751 14.7955 23.545 14.62C23.7441 14.4142 23.9556 14.368 24.319 14.368H24.3235ZM26.8255 14.2105L27.5174 15.8857V15.8913H26.1224L26.8255 14.2105ZM4.00937 16.7643L4.39075 17.7082H6.44162V14.404L7.90075 17.7082H8.77375L10.2317 14.404L10.2554 17.7082H11.2915V13.495H9.61637L8.40925 16.348L7.09187 13.4894H5.45725V17.4854L3.74612 13.4894H2.25212L0.46 17.7093H1.53662L1.92362 16.7722H4.0105L4.00937 16.7643ZM2.97775 14.2105L3.66962 15.8857L3.664 15.8913H2.29262L2.97775 14.2105ZM18.2237 20.7423H15.0141L13.7361 22.1249L12.4997 20.7423H8.46325V24.9723H12.4412L13.7237 23.5728L14.9612 24.9678H16.9109V23.5604H18.1709C19.0675 23.5604 19.9225 23.314 19.9225 22.1429L19.9169 22.1373C19.9169 20.9662 19.0214 20.7423 18.2237 20.7423ZM11.9485 24.0892H9.47012V23.251H11.6717V22.3904H9.47012V21.6288H11.989L13.0915 22.8584L11.9429 24.0948L11.9485 24.0892ZM15.9085 24.5875L14.3616 22.864L15.9085 21.2069V24.5875ZM18.235 22.6998H16.9109V21.6209H18.235C18.5984 21.6209 18.8684 21.7683 18.8684 22.1373C18.8684 22.5063 18.6467 22.6998 18.235 22.6998ZM15.3944 14.368V13.4894H12.0362V17.7149H15.3944V16.8419H13.0375V15.997H15.3291V15.1297H13.0375V14.368H15.3944Z" fill="#0BA5EC"/>
</g>
<defs>
<clipPath id="clip0_10928_30879">
<rect width="36" height="36" fill="white" transform="translate(0.441406 0.311157)"/>
</clipPath>
</defs>
</svg>
