<svg width="23" height="26" viewBox="0 0 23 26" fill="none" xmlns="http://www.w3.org/2000/svg">
<g id="Group 96">
<path id="Combined-Shape" fill-rule="evenodd" clip-rule="evenodd" d="M11.8855 0.869385C17.315 0.869385 21.7165 4.51419 21.7165 9.01028C21.7165 13.5064 17.315 16.2435 11.8855 16.2435C6.53355 16.1349 2.80089 14.3898 0.6875 11.0081C1.82877 4.5959 5.56143 1.21632 11.8855 0.869385ZM11.5193 5.93398C8.39747 6.24994 6.48704 7.73605 5.78799 10.3923C6.74008 11.2321 8.65052 11.6982 11.5193 11.7905C14.4014 11.7451 16.1476 10.9048 16.1819 8.95188C16.002 6.79396 13.9041 5.85247 11.5193 5.93398Z" fill="black"/>
<path id="Combined-Shape_2" fill-rule="evenodd" clip-rule="evenodd" d="M0.276782 13.1514C1.88712 17.7718 6.32822 20.3432 10.8944 20.3432C14.6808 20.3432 17.1908 18.7044 18.5069 16.2312L22.7501 18.8891C21.2711 22.5072 16.8859 25.1307 11.7063 25.1307C5.3122 25.1307 -0.163296 20.8216 0.274577 13.3287C0.274577 13.269 0.275315 13.2099 0.276782 13.1514Z" fill="#00C252"/>
</g>
</svg>
