<svg width="23" height="10" viewBox="0 0 23 10" fill="none" xmlns="http://www.w3.org/2000/svg">
<g id="logos:google-pay" clip-path="url(#clip0_7298_122527)">
<path id="Vector" d="M16.1581 2.95457C16.7713 2.95457 17.2453 3.12184 17.6077 3.4564C17.9701 3.79091 18.1374 4.23696 18.1374 4.79452V7.47078H17.3568V6.85753H17.3289C16.9944 7.35936 16.5204 7.61025 15.9629 7.61025C15.4889 7.61025 15.0708 7.47082 14.7363 7.19208C14.4296 6.9133 14.2344 6.52302 14.2344 6.10485C14.2344 5.65878 14.4017 5.29635 14.7363 5.01757C15.0708 4.73879 15.5447 4.62729 16.1023 4.62729C16.6041 4.62729 16.9944 4.71095 17.301 4.90607V4.71095C17.301 4.45073 17.2039 4.19056 17.0096 4.02102L16.9665 3.98611C16.7435 3.79095 16.4647 3.67945 16.1581 3.67945C15.6841 3.67945 15.3217 3.8746 15.0708 4.26489L14.346 3.81875C14.792 3.2333 15.3774 2.95457 16.1581 2.95457ZM12.2272 1.05884C12.7275 1.05884 13.2028 1.23291 13.5829 1.55753L13.649 1.61635C14.0393 1.95091 14.2344 2.45274 14.2344 2.98241C14.2344 3.51208 14.0393 3.98603 13.649 4.34842C13.2587 4.71082 12.7848 4.90598 12.2272 4.90598L10.8891 4.8781V7.47078H10.0527V1.05884H12.2272ZM16.2695 5.29631C15.935 5.29631 15.6562 5.37994 15.4332 5.5472C15.2102 5.68658 15.0987 5.88171 15.0987 6.13261C15.0987 6.35566 15.2102 6.55078 15.3774 6.66232C15.5726 6.80171 15.7956 6.88533 16.0187 6.88533C16.3309 6.88533 16.6431 6.76389 16.8873 6.54372L16.9386 6.49505C17.2174 6.24415 17.3568 5.93749 17.3568 5.60293C17.1059 5.40781 16.7435 5.29627 16.2696 5.29627M12.2831 1.83936H10.8892V4.06973H12.2831C12.5897 4.06973 12.8964 3.95823 13.0915 3.73522C13.5375 3.31705 13.5375 2.6201 13.1194 2.20189L13.0915 2.174C12.8685 1.95099 12.5897 1.8116 12.283 1.83949M22.6536 3.09396L19.8937 9.42228H19.0574L20.0888 7.21993L18.2767 3.12184H19.1689L20.4791 6.27204H20.507L21.7894 3.12184H22.6536V3.09396Z" fill="#5F6368"/>
<path id="Vector_2" d="M7.57364 4.32104C7.57364 4.07015 7.54575 3.81925 7.51787 3.56836H4.0332V4.99015H6.01251C5.92889 5.43616 5.678 5.85433 5.28771 6.10527V7.02522H6.48645C7.1834 6.38405 7.57368 5.43616 7.57368 4.32108" fill="#4285F4"/>
<path id="Vector_3" d="M4.03373 7.91704C5.0373 7.91704 5.87364 7.58249 6.48697 7.02493L5.28824 6.10498C4.95368 6.32798 4.53551 6.46737 4.03373 6.46737C3.08584 6.46737 2.2495 5.8262 1.97072 4.93408H0.744141V5.88193C1.38532 7.13643 2.63983 7.91704 4.03373 7.91704Z" fill="#34A853"/>
<path id="Vector_4" d="M1.96957 4.93408C1.80234 4.48803 1.80234 3.98624 1.96957 3.5123V2.56445H0.742991C0.213274 3.59596 0.213274 4.82258 0.742991 5.88193L1.96957 4.93408Z" fill="#FBBC04"/>
<path id="Vector_5" d="M4.03323 2.00683C4.5629 2.00683 5.06469 2.202 5.45501 2.56439L6.51436 1.50505C5.84525 0.891714 4.95318 0.529317 4.06107 0.55716C2.66717 0.55716 1.38482 1.33777 0.771484 2.59228L1.99811 3.54012C2.249 2.64801 3.08534 2.00683 4.03323 2.00683Z" fill="#EA4335"/>
</g>
<defs>
<clipPath id="clip0_7298_122527">
<rect width="22.3094" height="8.88889" fill="white" transform="translate(0.345703 0.555664)"/>
</clipPath>
</defs>
</svg>
