<svg width="36" height="36" viewBox="0 0 36 36" fill="none" xmlns="http://www.w3.org/2000/svg">
<g id="flat-color-icons:google">
<path id="Vector" d="M32.7083 15.0623H31.5V15H18V21H26.4773C25.2405 24.4928 21.9172 27 18 27C13.0297 27 9 22.9702 9 18C9 13.0297 13.0297 9 18 9C20.2943 9 22.3815 9.8655 23.9708 11.2792L28.2135 7.0365C25.5345 4.53975 21.951 3 18 3C9.71625 3 3 9.71625 3 18C3 26.2838 9.71625 33 18 33C26.2838 33 33 26.2838 33 18C33 16.9943 32.8965 16.0125 32.7083 15.0623Z" fill="#FFC107"/>
<path id="Vector_2" d="M4.72656 11.0183L9.65481 14.6325C10.9883 11.331 14.2178 9 17.9971 9C20.2913 9 22.3786 9.8655 23.9678 11.2793L28.2106 7.0365C25.5316 4.53975 21.9481 3 17.9971 3C12.2356 3 7.23906 6.25275 4.72656 11.0183Z" fill="#FF3D00"/>
<path id="Vector_3" d="M17.9983 32.9999C21.8728 32.9999 25.3933 31.5172 28.055 29.1059L23.4125 25.1774C21.8562 26.3617 19.954 27.002 17.9983 26.9999C14.0968 26.9999 10.784 24.5122 9.53603 21.0404L4.64453 24.8092C7.12703 29.6669 12.1685 32.9999 17.9983 32.9999Z" fill="#4CAF50"/>
<path id="Vector_4" d="M32.7083 15.0623H31.5V15H18V21H26.4773C25.8857 22.6623 24.82 24.1149 23.412 25.1782L23.4142 25.1768L28.0568 29.1052C27.7283 29.4037 33 25.5 33 18C33 16.9943 32.8965 16.0125 32.7083 15.0623Z" fill="#1976D2"/>
</g>
</svg>
