<svg width="196" height="57" viewBox="0 0 196 57" fill="none" xmlns="http://www.w3.org/2000/svg">
<g id="Group">
<path id="Border" d="M188.741 1.13418C192.102 1.13418 194.837 3.80074 194.837 7.07775V49.5444C194.837 52.8214 192.102 55.488 188.741 55.488H7.25926C3.89822 55.488 1.1633 52.8214 1.1633 49.5444V7.07775C1.1633 3.80074 3.89822 1.13418 7.25926 1.13418H188.741ZM188.741 -2.67029e-05H7.25926C3.26848 -2.67029e-05 0 3.18674 0 7.07775V49.5444C0 53.4354 3.26848 56.6222 7.25926 56.6222H188.741C192.732 56.6222 196 53.4354 196 49.5444V7.07775C196 3.18674 192.732 -2.67029e-05 188.741 -2.67029e-05Z" fill="#FCFCFC"/>
<g id="Icon">
<path id="Vector" d="M14.062 10.6715C13.6355 11.1068 13.3887 11.7844 13.3887 12.6621V43.9671C13.3887 44.8448 13.6355 45.5224 14.062 45.9577L14.1672 46.0533L32.1593 28.5181V28.104L14.1672 10.5688L14.062 10.6715Z" fill="#FCFCFC"/>
<path id="Vector_2" d="M40.3286 34.3661L34.3379 28.5181V28.104L40.3359 22.256L40.4701 22.3321L47.5733 26.2726C49.6005 27.3909 49.6005 29.2312 47.5733 30.3565L40.4701 34.29L40.3286 34.3661Z" fill="#FCFCFC"/>
<path id="Vector_3" d="M39.38 35.3789L33.2477 29.4L15.1504 47.0466C15.8237 47.7367 16.9216 47.8199 18.1702 47.1298L39.38 35.3789Z" fill="#FCFCFC"/>
<path id="Vector_4" d="M39.38 21.2432L18.1702 9.49234C16.9216 8.80933 15.8237 8.8925 15.1504 9.58258L33.2477 27.2222L39.38 21.2432Z" fill="#FCFCFC"/>
</g>
<g id="GET IT ON">
<path id="G" d="M68.8426 14.5005C68.8426 15.6824 68.4796 16.6291 67.7646 17.3351C66.9425 18.1721 65.8717 18.5932 64.5596 18.5932C63.3056 18.5932 62.2348 18.165 61.3565 17.321C60.4763 16.4645 60.0371 15.4135 60.0371 14.1554C60.0371 12.8973 60.4763 11.8463 61.3565 10.997C62.2348 10.1459 63.3056 9.71765 64.5596 9.71765C65.1839 9.71765 65.7792 9.84328 66.3472 10.0768C66.9134 10.3122 67.3744 10.6307 67.7083 11.0235L66.9497 11.7702C66.3672 11.0996 65.5741 10.7687 64.5596 10.7687C63.645 10.7687 62.8519 11.0801 62.1786 11.7083C61.5126 12.3382 61.1786 13.1539 61.1786 14.1554C61.1786 15.1569 61.5126 15.9797 62.1786 16.6096C62.8519 17.2307 63.645 17.5492 64.5596 17.5492C65.5306 17.5492 66.3472 17.2307 66.9915 16.6026C67.4161 16.1867 67.6575 15.6134 67.721 14.8809H64.5596V13.8582H68.7773C68.8281 14.0793 68.8426 14.2934 68.8426 14.5005Z" fill="#FCFCFC" stroke="#FCFCFC" stroke-width="0.0580741" stroke-miterlimit="10"/>
<path id="E" d="M75.5345 10.9545H71.5727V13.644H75.1443V14.6668H71.5727V17.3563H75.5345V18.3985H70.4512V9.91229H75.5345V10.9545Z" fill="#FCFCFC" stroke="#FCFCFC" stroke-width="0.0580741" stroke-miterlimit="10"/>
<path id="T" d="M80.2567 18.3985H79.1351V10.9545H76.7051V9.91229H82.6885V10.9545H80.2567V18.3985Z" fill="#FCFCFC" stroke="#FCFCFC" stroke-width="0.0580741" stroke-miterlimit="10"/>
<path id="I" d="M87.0176 18.3985V9.91229H88.1373V18.3985H87.0176Z" fill="#FCFCFC" stroke="#FCFCFC" stroke-width="0.0580741" stroke-miterlimit="10"/>
<path id="T_2" d="M93.1004 18.3985H91.9879V10.9545H89.5488V9.91229H95.5395V10.9545H93.1004V18.3985Z" fill="#FCFCFC" stroke="#FCFCFC" stroke-width="0.0580741" stroke-miterlimit="10"/>
<path id="O" d="M106.868 17.3068C106.01 18.165 104.947 18.5932 103.678 18.5932C102.402 18.5932 101.339 18.165 100.48 17.3068C99.6237 16.4504 99.1973 15.3993 99.1973 14.1554C99.1973 12.9115 99.6237 11.8604 100.48 11.004C101.339 10.1459 102.402 9.71765 103.678 9.71765C104.939 9.71765 106.003 10.1459 106.861 11.0111C107.725 11.8746 108.152 12.9186 108.152 14.1554C108.152 15.3993 107.725 16.4504 106.868 17.3068ZM101.31 16.5955C101.956 17.2307 102.742 17.5492 103.678 17.5492C104.607 17.5492 105.4 17.2307 106.039 16.5955C106.683 15.9603 107.01 15.1445 107.01 14.1554C107.01 13.1663 106.683 12.3506 106.039 11.7154C105.4 11.0801 104.607 10.7616 103.678 10.7616C102.742 10.7616 101.956 11.0801 101.31 11.7154C100.665 12.3506 100.339 13.1663 100.339 14.1554C100.339 15.1445 100.665 15.9603 101.31 16.5955Z" fill="#FCFCFC" stroke="#FCFCFC" stroke-width="0.0580741" stroke-miterlimit="10"/>
<path id="N" d="M109.725 18.3985V9.91229H111.086L115.318 16.5123H115.367L115.318 14.8809V9.91229H116.438V18.3985H115.269L110.837 11.4729H110.788L110.837 13.1114V18.3985H109.725Z" fill="#FCFCFC" stroke="#FCFCFC" stroke-width="0.0580741" stroke-miterlimit="10"/>
</g>
<g id="Google Play">
<path id="Google Play_2" d="M98.9219 30.7919C95.5119 30.7919 92.7261 33.3222 92.7261 36.8133C92.7261 40.2761 95.5119 42.833 98.9219 42.833C102.339 42.833 105.125 40.2761 105.125 36.8133C105.125 33.3222 102.339 30.7919 98.9219 30.7919ZM98.9219 40.4619C97.0508 40.4619 95.4411 38.9561 95.4411 36.8133C95.4411 34.6422 97.0508 33.163 98.9219 33.163C100.793 33.163 102.41 34.6422 102.41 36.8133C102.41 38.9561 100.793 40.4619 98.9219 40.4619ZM85.4033 30.7919C81.986 30.7919 79.2076 33.3222 79.2076 36.8133C79.2076 40.2761 81.986 42.833 85.4033 42.833C88.8188 42.833 91.5991 40.2761 91.5991 36.8133C91.5991 33.3222 88.8188 30.7919 85.4033 30.7919ZM85.4033 40.4619C83.5305 40.4619 81.9153 38.9561 81.9153 36.8133C81.9153 34.6422 83.5305 33.163 85.4033 33.163C87.2744 33.163 88.8842 34.6422 88.8842 36.8133C88.8842 38.9561 87.2744 40.4619 85.4033 40.4619ZM69.3168 32.6375V35.1961H75.5834C75.4001 36.6258 74.9101 37.6768 74.1588 38.4094C73.2441 39.2941 71.8195 40.2761 69.3168 40.2761C65.4604 40.2761 62.4405 37.2416 62.4405 33.4815C62.4405 29.7214 65.4604 26.6868 69.3168 26.6868C71.4021 26.6868 72.9192 27.4813 74.039 28.5111L75.8883 26.7081C74.3221 25.25 72.2387 24.13 69.3168 24.13C64.0285 24.13 59.584 28.3253 59.584 33.4815C59.584 38.6376 64.0285 42.833 69.3168 42.833C72.1752 42.833 74.3221 41.92 76.0099 40.2071C77.7394 38.5209 78.2784 36.1498 78.2784 34.2353C78.2784 33.6407 78.2276 33.094 78.1368 32.6375H69.3168ZM135.097 34.621C134.587 33.2745 133.013 30.7919 129.808 30.7919C126.632 30.7919 123.988 33.232 123.988 36.8133C123.988 40.1859 126.605 42.833 130.113 42.833C132.95 42.833 134.587 41.1467 135.26 40.1647L133.155 38.7969C132.452 39.7984 131.496 40.4619 130.113 40.4619C128.739 40.4619 127.754 39.8479 127.122 38.6376L135.382 35.3058L135.097 34.621ZM126.676 36.6258C126.605 34.3043 128.525 33.1152 129.901 33.1152C130.979 33.1152 131.893 33.6407 132.198 34.3927L126.676 36.6258ZM119.963 42.4667H122.678V24.7723H119.963V42.4667ZM115.517 32.1332H115.426C114.816 31.4289 113.653 30.7919 112.179 30.7919C109.087 30.7919 106.259 33.439 106.259 36.8328C106.259 40.2071 109.087 42.833 112.179 42.833C113.653 42.833 114.816 42.1907 115.426 41.4652H115.517V42.3287C115.517 44.6308 114.255 45.8676 112.221 45.8676C110.562 45.8676 109.533 44.6998 109.108 43.7177L106.747 44.6785C107.428 46.2746 109.23 48.2386 112.221 48.2386C115.404 48.2386 118.09 46.4126 118.09 41.9695V31.1582H115.517V32.1332ZM112.411 40.4619C110.54 40.4619 108.974 38.9349 108.974 36.8328C108.974 34.7112 110.54 33.163 112.411 33.163C114.255 33.163 115.709 34.7112 115.709 36.8328C115.709 38.9349 114.255 40.4619 112.411 40.4619ZM147.808 24.7723H141.314V42.4667H144.022V35.7623H147.808C150.815 35.7623 153.764 33.6407 153.764 30.2664C153.764 26.8938 150.807 24.7723 147.808 24.7723ZM147.878 33.301H144.022V27.2336H147.878C149.9 27.2336 151.054 28.8703 151.054 30.2664C151.054 31.636 149.9 33.301 147.878 33.301ZM164.616 30.7583C162.66 30.7583 160.626 31.6006 159.789 33.4673L162.192 34.4494C162.709 33.4673 163.66 33.1488 164.665 33.1488C166.07 33.1488 167.495 33.9716 167.516 35.4243V35.6101C167.026 35.3341 165.977 34.9254 164.687 34.9254C162.099 34.9254 159.462 36.3144 159.462 38.9066C159.462 41.2777 161.582 42.8047 163.965 42.8047C165.787 42.8047 166.792 42.0031 167.424 41.0706H167.516V42.4384H170.132V35.6508C170.132 32.5136 167.729 30.7583 164.616 30.7583ZM164.29 40.4549C163.404 40.4549 162.17 40.0267 162.17 38.9561C162.17 37.5866 163.709 37.0611 165.041 37.0611C166.233 37.0611 166.792 37.3176 167.516 37.6556C167.304 39.2941 165.858 40.4549 164.29 40.4549ZM179.659 31.1458L176.547 38.8164H176.454L173.237 31.1458H170.317L175.151 41.8651L172.393 47.8299H175.222L182.672 31.1458H179.659ZM155.252 42.4667H157.967V24.7723H155.252V42.4667Z" fill="#FCFCFC"/>
</g>
</g>
</svg>
