<svg width="19" height="16" viewBox="0 0 19 16" fill="none" xmlns="http://www.w3.org/2000/svg">
<g id="logos:jcb" clip-path="url(#clip0_7298_122515)">
<path id="Vector" d="M18.9434 12.3098C18.9434 13.926 17.6273 15.2421 16.011 15.2421H0.0566406V3.62836C0.0566406 2.01214 1.37274 0.696045 2.98895 0.696045H18.9434V12.3098Z" fill="white"/>
<path id="Vector_2" d="M13.748 9.33141H14.9602C14.9949 9.33141 15.0757 9.3199 15.1103 9.3199C15.3412 9.27372 15.5375 9.06589 15.5375 8.77728C15.5375 8.50025 15.3412 8.29242 15.1103 8.23473C15.0757 8.22314 15.0064 8.22314 14.9603 8.22314H13.7481L13.748 9.33141Z" fill="url(#paint0_linear_7298_122515)"/>
<path id="Vector_3" d="M14.8216 1.67725C13.6672 1.67725 12.7205 2.61243 12.7205 3.77839V5.96033H15.6875C15.7568 5.96033 15.8375 5.96033 15.8952 5.97184C16.5648 6.00651 17.0613 6.35282 17.0613 6.95306C17.0613 7.42641 16.7265 7.83048 16.1031 7.91134V7.93436C16.7842 7.98054 17.3037 8.36152 17.3037 8.95026C17.3037 9.58525 16.7265 10.0008 15.9645 10.0008H12.709V14.2723H15.7914C16.9458 14.2723 17.8925 13.3372 17.8925 12.1712V1.67725H14.8216Z" fill="url(#paint1_linear_7298_122515)"/>
<path id="Vector_4" d="M15.3874 7.09201C15.3874 6.8149 15.1911 6.63017 14.9602 6.59549C14.9372 6.59549 14.8794 6.58398 14.8448 6.58398H13.748V7.59988H14.8448C14.8795 7.59988 14.9487 7.59988 14.9603 7.58837C15.1912 7.5537 15.3874 7.36904 15.3874 7.09193" fill="url(#paint2_linear_7298_122515)"/>
<path id="Vector_5" d="M3.20836 1.67725C2.05391 1.67725 1.10721 2.61243 1.10721 3.77839V8.96191C1.69602 9.25045 2.30785 9.43519 2.91975 9.43519C3.64703 9.43519 4.03952 8.99651 4.03952 8.3962V5.94874H5.84048V8.38461C5.84048 9.33124 5.25174 10.1048 3.25454 10.1048C2.0424 10.1048 1.0957 9.83919 1.0957 9.83919V14.2607H4.17807C5.33253 14.2607 6.27922 13.3256 6.27922 12.1596V1.67739L3.20836 1.67725Z" fill="url(#paint3_linear_7298_122515)"/>
<path id="Vector_6" d="M9.01326 1.67725C7.85881 1.67725 6.91211 2.61243 6.91211 3.77839V6.52597C7.44322 6.07571 8.36676 5.7871 9.856 5.85638C10.6526 5.89105 11.5068 6.11039 11.5068 6.11039V6.99932C11.0797 6.77998 10.5718 6.58366 9.9137 6.53748C8.78234 6.45669 8.10124 7.01083 8.10124 7.98054C8.10124 8.96184 8.78234 9.51597 9.9137 9.4236C10.5718 9.37742 11.0797 9.16967 11.5068 8.96184V9.85077C11.5068 9.85077 10.6641 10.0701 9.856 10.1048C8.36676 10.174 7.44322 9.88537 6.91218 9.43519V14.2838H9.99455C11.149 14.2838 12.0956 13.3487 12.0956 12.1827V1.67739L9.01326 1.67725Z" fill="url(#paint4_linear_7298_122515)"/>
</g>
<defs>
<linearGradient id="paint0_linear_7298_122515" x1="-89.1932" y1="63.7739" x2="429.599" y2="63.7739" gradientUnits="userSpaceOnUse">
<stop stop-color="#007940"/>
<stop offset="0.2285" stop-color="#00873F"/>
<stop offset="0.7433" stop-color="#40A737"/>
<stop offset="1" stop-color="#5CB531"/>
</linearGradient>
<linearGradient id="paint1_linear_7298_122515" x1="13.6576" y1="630.927" x2="532.476" y2="630.927" gradientUnits="userSpaceOnUse">
<stop stop-color="#007940"/>
<stop offset="0.2285" stop-color="#00873F"/>
<stop offset="0.7433" stop-color="#40A737"/>
<stop offset="1" stop-color="#5CB531"/>
</linearGradient>
<linearGradient id="paint2_linear_7298_122515" x1="-89.2084" y1="57.2347" x2="429.612" y2="57.2347" gradientUnits="userSpaceOnUse">
<stop stop-color="#007940"/>
<stop offset="0.2285" stop-color="#00873F"/>
<stop offset="0.7433" stop-color="#40A737"/>
<stop offset="1" stop-color="#5CB531"/>
</linearGradient>
<linearGradient id="paint3_linear_7298_122515" x1="2.008" y1="630.928" x2="528.819" y2="630.928" gradientUnits="userSpaceOnUse">
<stop stop-color="#1F286F"/>
<stop offset="0.4751" stop-color="#004E94"/>
<stop offset="0.8261" stop-color="#0066B1"/>
<stop offset="1" stop-color="#006FBC"/>
</linearGradient>
<linearGradient id="paint4_linear_7298_122515" x1="3.9264" y1="630.923" x2="515.586" y2="630.923" gradientUnits="userSpaceOnUse">
<stop stop-color="#6C2C2F"/>
<stop offset="0.1735" stop-color="#882730"/>
<stop offset="0.5731" stop-color="#BE1833"/>
<stop offset="0.8585" stop-color="#DC0436"/>
<stop offset="1" stop-color="#E60039"/>
</linearGradient>
<clipPath id="clip0_7298_122515">
<rect width="18.8867" height="14.6077" fill="white" transform="translate(0.0566406 0.696045)"/>
</clipPath>
</defs>
</svg>
