<svg width="37" height="29" viewBox="0 0 37 29" fill="none" xmlns="http://www.w3.org/2000/svg">
<g id="logos:jcb" clip-path="url(#clip0_10928_30882)">
<path id="Vector" d="M36.4414 22.5262C36.4414 25.6069 33.9328 28.1155 30.8521 28.1155H0.441406V5.97856C0.441406 2.89789 2.95002 0.389282 6.03069 0.389282H36.4414V22.5262Z" fill="white"/>
<path id="Vector_2" d="M26.5391 16.8488H28.8495C28.9156 16.8488 29.0696 16.8269 29.1357 16.8269C29.5759 16.7388 29.9499 16.3427 29.9499 15.7926C29.9499 15.2645 29.5759 14.8684 29.1357 14.7584C29.0696 14.7363 28.9377 14.7363 28.8497 14.7363H26.5392L26.5391 16.8488Z" fill="url(#paint0_linear_10928_30882)"/>
<path id="Vector_3" d="M28.5855 2.25964C26.385 2.25964 24.5805 4.04221 24.5805 6.26464V10.4236H30.2359C30.368 10.4236 30.5219 10.4236 30.6319 10.4456C31.9082 10.5117 32.8545 11.1718 32.8545 12.3159C32.8545 13.2181 32.2163 13.9883 31.028 14.1425V14.1863C32.3263 14.2744 33.3166 15.0006 33.3166 16.1227C33.3166 17.3331 32.2163 18.1252 30.764 18.1252H24.5586V26.2671H30.4339C32.6344 26.2671 34.4389 24.4847 34.4389 22.2621V2.25964H28.5855Z" fill="url(#paint1_linear_10928_30882)"/>
<path id="Vector_4" d="M29.6638 12.58C29.6638 12.0519 29.2897 11.6997 28.8495 11.6336C28.8057 11.6336 28.6955 11.6117 28.6296 11.6117H26.5391V13.5481H28.6296C28.6957 13.5481 28.8276 13.5481 28.8497 13.5262C29.2898 13.4601 29.6639 13.1081 29.6639 12.5799" fill="url(#paint2_linear_10928_30882)"/>
<path id="Vector_5" d="M6.44881 2.25964C4.24831 2.25964 2.44381 4.04221 2.44381 6.26464V16.145C3.56614 16.6949 4.73234 17.0471 5.89869 17.0471C7.28497 17.0471 8.03309 16.2109 8.03309 15.0666V10.4015H11.4659V15.0446C11.4659 16.8489 10.3437 18.3234 6.53684 18.3234C4.22638 18.3234 2.42188 17.8171 2.42188 17.8171V26.2451H8.29719C10.4977 26.2451 12.3022 24.4626 12.3022 22.2401V2.25992L6.44881 2.25964Z" fill="url(#paint3_linear_10928_30882)"/>
<path id="Vector_6" d="M17.5167 2.25964C15.3162 2.25964 13.5117 4.04221 13.5117 6.26464V11.5018C14.5241 10.6436 16.2844 10.0934 19.1231 10.2255C20.6414 10.2916 22.2697 10.7097 22.2697 10.7097V12.404C21.4555 11.986 20.4874 11.6118 19.233 11.5237C17.0766 11.3698 15.7783 12.426 15.7783 14.2744C15.7783 16.1448 17.0766 17.201 19.233 17.025C20.4874 16.937 21.4556 16.541 22.2697 16.1448V17.8392C22.2697 17.8392 20.6633 18.2573 19.1231 18.3234C16.2844 18.4553 14.5241 17.9052 13.5119 17.0471V26.2891H19.3872C21.5877 26.2891 23.392 24.5067 23.392 22.2841V2.25992L17.5167 2.25964Z" fill="url(#paint4_linear_10928_30882)"/>
</g>
<defs>
<linearGradient id="paint0_linear_10928_30882" x1="-169.677" y1="120.622" x2="819.192" y2="120.622" gradientUnits="userSpaceOnUse">
<stop stop-color="#007940"/>
<stop offset="0.2285" stop-color="#00873F"/>
<stop offset="0.7433" stop-color="#40A737"/>
<stop offset="1" stop-color="#5CB531"/>
</linearGradient>
<linearGradient id="paint1_linear_10928_30882" x1="26.3667" y1="1201.67" x2="1015.29" y2="1201.67" gradientUnits="userSpaceOnUse">
<stop stop-color="#007940"/>
<stop offset="0.2285" stop-color="#00873F"/>
<stop offset="0.7433" stop-color="#40A737"/>
<stop offset="1" stop-color="#5CB531"/>
</linearGradient>
<linearGradient id="paint2_linear_10928_30882" x1="-169.706" y1="108.157" x2="819.217" y2="108.157" gradientUnits="userSpaceOnUse">
<stop stop-color="#007940"/>
<stop offset="0.2285" stop-color="#00873F"/>
<stop offset="0.7433" stop-color="#40A737"/>
<stop offset="1" stop-color="#5CB531"/>
</linearGradient>
<linearGradient id="paint3_linear_10928_30882" x1="4.16081" y1="1201.67" x2="1008.32" y2="1201.67" gradientUnits="userSpaceOnUse">
<stop stop-color="#1F286F"/>
<stop offset="0.4751" stop-color="#004E94"/>
<stop offset="0.8261" stop-color="#0066B1"/>
<stop offset="1" stop-color="#006FBC"/>
</linearGradient>
<linearGradient id="paint4_linear_10928_30882" x1="7.82066" y1="1201.66" x2="983.096" y2="1201.66" gradientUnits="userSpaceOnUse">
<stop stop-color="#6C2C2F"/>
<stop offset="0.1735" stop-color="#882730"/>
<stop offset="0.5731" stop-color="#BE1833"/>
<stop offset="0.8585" stop-color="#DC0436"/>
<stop offset="1" stop-color="#E60039"/>
</linearGradient>
<clipPath id="clip0_10928_30882">
<rect width="36" height="27.8438" fill="white" transform="translate(0.441406 0.389282)"/>
</clipPath>
</defs>
</svg>
