<svg width="36" height="13" viewBox="0 0 36 13" fill="none" xmlns="http://www.w3.org/2000/svg">
<g id="logos:visa" clip-path="url(#clip0_10928_30865)">
<path id="Vector" d="M18.6183 4.19159C18.5978 5.81103 20.0616 6.71469 21.1642 7.25201C22.2971 7.80326 22.6776 8.15679 22.6731 8.64983C22.6647 9.40428 21.7695 9.73728 20.9318 9.75022C19.4702 9.77286 18.6204 9.35562 17.9449 9.04006L17.4184 11.5037C18.0962 11.816 19.3513 12.0884 20.6528 12.1003C23.7078 12.1003 25.7065 10.5923 25.7174 8.25411C25.7293 5.28664 21.6128 5.12239 21.6409 3.79601C21.6506 3.39383 22.0344 2.96464 22.8753 2.85551C23.2916 2.80039 24.4406 2.7582 25.7434 3.35811L26.2547 0.974514C25.5541 0.71942 24.6537 0.475155 23.5326 0.475155C20.6571 0.475155 18.6346 2.00375 18.6183 4.19159ZM31.1678 0.680467C30.61 0.680467 30.1399 1.00587 29.9301 1.50523L25.566 11.9253H28.6189L29.2264 10.2463H32.9569L33.3093 11.9253H36L33.652 0.680467H31.1678ZM31.5949 3.71811L32.4759 7.94065H30.0631L31.5949 3.71811ZM14.9169 0.680607L12.5106 11.9251H15.4197L17.8249 0.680326L14.9169 0.680607ZM10.6134 0.680607L7.58545 8.33412L6.36061 1.82642C6.21689 1.09995 5.64933 0.680467 5.01905 0.680467H0.0693281L0 1.007C1.01616 1.2275 2.17069 1.58314 2.87016 1.96367C3.29822 2.19612 3.42028 2.39933 3.56091 2.9517L5.8808 11.9253H8.955L13.6682 0.680467L10.6134 0.680607Z" fill="url(#paint0_linear_10928_30865)"/>
</g>
<defs>
<linearGradient id="paint0_linear_10928_30865" x1="1655.06" y1="35.4205" x2="1688.71" y2="-1158.5" gradientUnits="userSpaceOnUse">
<stop stop-color="#222357"/>
<stop offset="1" stop-color="#254AA5"/>
</linearGradient>
<clipPath id="clip0_10928_30865">
<rect width="36" height="11.6719" fill="white" transform="translate(0 0.47522)"/>
</clipPath>
</defs>
</svg>
