<svg width="51" height="21" viewBox="0 0 51 21" fill="none" xmlns="http://www.w3.org/2000/svg">
<g id="logos:google-pay" clip-path="url(#clip0_10928_30893)">
<path id="Vector" d="M35.9245 5.709C37.3044 5.709 38.3707 6.08537 39.1862 6.83811C40.0016 7.59076 40.3779 8.59439 40.3779 9.8489V15.8705H38.6216V14.4907H38.5589C37.8062 15.6198 36.7399 16.1843 35.4853 16.1843C34.419 16.1843 33.4781 15.8706 32.7254 15.2434C32.0354 14.6162 31.5963 13.738 31.5963 12.7971C31.5963 11.7935 31.9727 10.978 32.7254 10.3508C33.4781 9.72351 34.5445 9.47262 35.799 9.47262C36.928 9.47262 37.8062 9.66086 38.4961 10.0999V9.66086C38.4961 9.07537 38.2776 8.48998 37.8404 8.10851L37.7434 8.02998C37.2416 7.59086 36.6144 7.33998 35.9245 7.33998C34.8581 7.33998 34.0427 7.77906 33.4781 8.65723L31.8473 7.65341C32.8508 6.33615 34.1681 5.709 35.9245 5.709ZM27.0801 1.4436C28.2056 1.4436 29.2752 1.83527 30.1304 2.56566L30.2792 2.69802C31.1573 3.45076 31.5963 4.57988 31.5963 5.77164C31.5963 6.96341 31.1573 8.02978 30.2792 8.84517C29.401 9.66056 28.3347 10.0997 27.0801 10.0997L24.0694 10.0369V15.8705H22.1875V1.4436H27.0801ZM36.1752 10.9779C35.4226 10.9779 34.7953 11.1661 34.2936 11.5424C33.7917 11.856 33.5408 12.2951 33.5408 12.8596C33.5408 13.3614 33.7918 13.8005 34.1681 14.0514C34.6072 14.3651 35.109 14.5532 35.6108 14.5532C36.3133 14.5532 37.0158 14.28 37.5653 13.7846L37.6807 13.6751C38.308 13.1106 38.6216 12.4206 38.6216 11.6678C38.0571 11.2288 37.2416 10.9778 36.1753 10.9778M27.2057 3.19978H24.0695V8.21811H27.2057C27.8956 8.21811 28.5856 7.96723 29.0248 7.46547C30.0283 6.52458 30.0283 4.95645 29.0875 4.01547L29.0248 3.95272C28.5229 3.45096 27.8956 3.13733 27.2056 3.20007M50.5395 6.02262L44.3297 20.2613H42.4479L44.7687 15.3061L40.6915 6.08537H42.6988L45.6468 13.1733H45.7096L48.5949 6.08537H50.5395V6.02262Z" fill="#5F6368"/>
<path id="Vector_2" d="M16.6047 8.7824C16.6047 8.21789 16.5419 7.65338 16.4792 7.08887H8.63867V10.2879H13.0921C12.904 11.2914 12.3395 12.2323 11.4613 12.7969V14.8668H14.1585C15.7266 13.4242 16.6048 11.2914 16.6048 8.78249" fill="#4285F4"/>
<path id="Vector_3" d="M8.63985 16.8741C10.8979 16.8741 12.7797 16.1214 14.1597 14.8669L11.4625 12.797C10.7098 13.2988 9.76887 13.6124 8.63985 13.6124C6.5071 13.6124 4.62534 12.1697 3.99809 10.1625H1.23828V12.2951C2.68093 15.1178 5.50358 16.8741 8.63985 16.8741Z" fill="#34A853"/>
<path id="Vector_4" d="M3.99745 10.1625C3.62118 9.15885 3.62118 8.02983 3.99745 6.96346V4.83081H1.23765C0.0457844 7.15169 0.0457844 9.91159 1.23765 12.2951L3.99745 10.1625Z" fill="#FBBC04"/>
<path id="Vector_5" d="M8.6397 3.57629C9.83147 3.57629 10.9605 4.01541 11.8387 4.8308L14.2223 2.44727C12.7168 1.06727 10.7096 0.251877 8.70235 0.314524C5.56608 0.314524 2.68078 2.0709 1.30078 4.89354L4.06068 7.02619C4.62519 5.01894 6.50696 3.57629 8.6397 3.57629Z" fill="#EA4335"/>
</g>
<defs>
<clipPath id="clip0_10928_30893">
<rect width="50.1961" height="20" fill="white" transform="translate(0.34375 0.311157)"/>
</clipPath>
</defs>
</svg>
