<svg width="72" height="13" viewBox="0 0 72 13" fill="none" xmlns="http://www.w3.org/2000/svg">
<g id="logos:discover" clip-path="url(#clip0_10928_30874)">
<path id="Vector" d="M37.7235 0.362183C34.3772 0.362183 31.6621 2.97637 31.6621 6.20269C31.6621 9.63302 34.2593 12.1971 37.7235 12.1971C41.1014 12.1971 43.7684 9.59897 43.7684 6.27009C43.7684 2.96088 41.1192 0.362183 37.7235 0.362183Z" fill="url(#paint0_linear_10928_30874)"/>
<g id="Vector_2" filter="url(#filter0_i_10928_30874)">
<path d="M37.7235 0.362183C34.3772 0.362183 31.6621 2.97637 31.6621 6.20269C31.6621 9.63302 34.2593 12.1971 37.7235 12.1971C41.1014 12.1971 43.7684 9.59897 43.7684 6.27009C43.7684 2.96088 41.1192 0.362183 37.7235 0.362183Z" fill="#FDE009"/>
</g>
<path id="Vector_3" d="M3.31325 0.575173H0.0546875V11.9408H3.29622C5.01613 11.9408 6.25994 11.5334 7.35111 10.6295C8.64571 9.55578 9.41343 7.93676 9.41343 6.26345C9.41343 2.90792 6.90669 0.575173 3.31325 0.575173ZM5.90469 9.1115C5.20408 9.74359 4.30199 10.0168 2.86841 10.0168H2.27287V2.49978H2.86841C4.30199 2.49978 5.16948 2.75568 5.90469 3.41959C6.67143 4.10136 7.12869 5.15708 7.12869 6.24727C7.12869 7.33982 6.67143 8.43238 5.90469 9.1115ZM10.4368 11.9408H12.6515V0.575173H10.4371L10.4368 11.9408ZM18.0732 4.93494C16.7422 4.44182 16.3505 4.11657 16.3505 3.50527C16.3505 2.78889 17.0479 2.24401 18.0039 2.24401C18.6685 2.24401 19.2138 2.51652 19.795 3.16215L20.9524 1.64778C19.998 0.810987 18.8565 0.385545 17.6111 0.385545C15.6021 0.385545 14.0671 1.78368 14.0671 3.6395C14.0671 5.20871 14.7823 6.00894 16.8622 6.76076C17.7318 7.06592 18.1739 7.2695 18.396 7.40862C18.839 7.69843 19.0616 8.10601 19.0616 8.5828C19.0616 9.50457 18.328 10.1852 17.3382 10.1852C16.2813 10.1852 15.4302 9.6575 14.9186 8.66917L13.4887 10.0511C14.5092 11.5488 15.7366 12.2156 17.4255 12.2156C19.7262 12.2156 21.3442 10.6797 21.3442 8.48192C21.3442 6.67508 20.5963 5.85643 18.0732 4.93494ZM22.0427 6.26359C22.0427 9.60755 24.6682 12.1973 28.0436 12.1973C28.9979 12.1973 29.8158 12.0087 30.8224 11.5333V8.92438C29.935 9.81155 29.1508 10.1685 28.1447 10.1685C25.9127 10.1685 24.3266 8.54903 24.3266 6.24727C24.3266 4.06689 25.9623 2.34531 28.0436 2.34531C29.0986 2.34531 29.9009 2.71996 30.8224 3.62317V1.01457C29.851 0.52201 29.0486 0.318848 28.0942 0.318848C24.736 0.318848 22.0427 2.96094 22.0427 6.26359ZM48.7849 8.20982L45.751 0.575173H43.3306L48.1557 12.2312H49.3478L54.257 0.575034H51.8546L48.7849 8.20982ZM55.2649 11.941H61.553V10.0168H57.4801V6.94689H61.3972V5.02243H57.4801V2.49964H61.553V0.575313H55.2647L55.2649 11.941ZM70.3282 3.92945C70.3282 1.80029 68.8645 0.575173 66.3064 0.575173H63.0166V11.9408H65.2345V7.37289H65.5247L68.591 11.9408H71.3181L67.7366 7.15341C69.4094 6.81127 70.3282 5.66889 70.3282 3.92945ZM65.8796 5.80648H65.2345V2.36248H65.915C67.2985 2.36248 68.0481 2.94364 68.0481 4.04973C68.0481 5.19071 67.2985 5.80648 65.8796 5.80648Z" fill="#0B1015"/>
</g>
<defs>
<filter id="filter0_i_10928_30874" x="31.6621" y="0.362183" width="13.5845" height="13.314" filterUnits="userSpaceOnUse" color-interpolation-filters="sRGB">
<feFlood flood-opacity="0" result="BackgroundImageFix"/>
<feBlend mode="normal" in="SourceGraphic" in2="BackgroundImageFix" result="shape"/>
<feColorMatrix in="SourceAlpha" type="matrix" values="0 0 0 0 0 0 0 0 0 0 0 0 0 0 0 0 0 0 127 0" result="hardAlpha"/>
<feOffset dx="3.62791" dy="3.90698"/>
<feGaussianBlur stdDeviation="0.739535"/>
<feComposite in2="hardAlpha" operator="arithmetic" k2="-1" k3="1"/>
<feColorMatrix type="matrix" values="0 0 0 0 1 0 0 0 0 0.583333 0 0 0 0 0 0 0 0 1 0"/>
<feBlend mode="normal" in2="shape" result="effect1_innerShadow_10928_30874"/>
</filter>
<linearGradient id="paint0_linear_10928_30874" x1="266.694" y1="107.622" x2="1084.71" y2="971.601" gradientUnits="userSpaceOnUse">
<stop stop-color="#F34F26"/>
<stop offset="1" stop-color="#F69E35"/>
</linearGradient>
<clipPath id="clip0_10928_30874">
<rect width="71.4419" height="12" fill="white" transform="translate(0 0.311157)"/>
</clipPath>
</defs>
</svg>
