<svg width="25" height="26" viewBox="0 0 25 26" fill="none" xmlns="http://www.w3.org/2000/svg">
<g id="solar:card-linear">
<g id="Group">
<path id="Vector" d="M2.08594 13.0001C2.08594 9.07196 2.08594 7.10737 3.30677 5.88758C4.5276 4.66779 6.49115 4.66675 10.4193 4.66675H14.5859C18.5141 4.66675 20.4786 4.66675 21.6984 5.88758C22.9182 7.10841 22.9193 9.07196 22.9193 13.0001C22.9193 16.9282 22.9193 18.8928 21.6984 20.1126C20.4776 21.3324 18.5141 21.3334 14.5859 21.3334H10.4193C6.49115 21.3334 4.52656 21.3334 3.30677 20.1126C2.08698 18.8917 2.08594 16.9282 2.08594 13.0001Z" stroke="#333333" stroke-width="1.5625"/>
<path id="Vector_2" d="M10.4193 17.1667H6.2526M14.5859 17.1667H13.0234M2.08594 10.9167H22.9193" stroke="#333333" stroke-width="1.5625" stroke-linecap="round"/>
</g>
</g>
</svg>
