<svg width="196" height="58" viewBox="0 0 196 58" fill="none" xmlns="http://www.w3.org/2000/svg">
<g id="Group">
<path id="Border" d="M188.741 1.82315C192.102 1.82315 194.837 4.4897 194.837 7.76671V50.2334C194.837 53.5104 192.102 56.1769 188.741 56.1769H7.25926C3.89822 56.1769 1.1633 53.5104 1.1633 50.2334V7.76671C1.1633 4.4897 3.89822 1.82315 7.25926 1.82315H188.741ZM188.741 0.688934H7.25926C3.26848 0.688934 0 3.87571 0 7.76671V50.2334C0 54.1244 3.26848 57.3112 7.25926 57.3112H188.741C192.732 57.3112 196 54.1244 196 50.2334V7.76671C196 3.87571 192.732 0.688934 188.741 0.688934Z" fill="#FCFCFC"/>
<g id="Icon">
<g id="Vector">
<path d="M43.7417 28.6943C43.6996 24.132 47.5731 21.9124 47.7503 21.8091C45.5565 18.6906 42.1563 18.2645 40.9614 18.2306C38.1056 17.9375 35.3355 19.8967 33.8807 19.8967C32.3969 19.8967 30.1567 18.2589 27.7423 18.307C24.6353 18.3537 21.7287 20.1076 20.1346 22.8311C16.8447 28.3843 19.2983 36.545 22.4503 41.0337C24.027 43.2321 25.8694 45.6867 28.2809 45.6003C30.6402 45.5055 31.5215 44.1338 34.3686 44.1338C37.1895 44.1338 38.0171 45.6003 40.4765 45.5451C43.0085 45.5055 44.6027 43.3368 46.1242 41.1187C47.9463 38.599 48.678 36.1175 48.707 35.9901C48.6475 35.9703 43.7896 34.1626 43.7417 28.6943Z" fill="#FCFCFC"/>
<path d="M39.0958 15.2777C40.3647 13.7305 41.2329 11.6256 40.9919 9.4895C39.1553 9.56877 36.8585 10.7281 35.5358 12.2413C34.3657 13.5748 33.3203 15.7604 33.5904 17.8158C35.6534 17.9658 37.7717 16.8008 39.0958 15.2777Z" fill="#FCFCFC"/>
</g>
</g>
<g id="Download on the">
<path id="D" d="M71.2124 14.8572C71.2124 16.5233 70.6999 17.7775 69.6764 18.6197C68.7283 19.3969 67.381 19.7861 65.6358 19.7861C64.7705 19.7861 64.0301 19.7493 63.4102 19.6757V10.5723C64.2188 10.4449 65.09 10.3798 66.0308 10.3798C67.6931 10.3798 68.9461 10.7322 69.7911 11.4372C70.7377 12.2341 71.2124 13.3737 71.2124 14.8572ZM69.6081 14.8982C69.6081 13.8181 69.3148 12.99 68.7283 12.4125C68.1417 11.8364 67.2852 11.5476 66.1571 11.5476C65.678 11.5476 65.27 11.5787 64.9317 11.6439V18.5645C65.119 18.5928 65.4616 18.6056 65.9596 18.6056C67.124 18.6056 68.0227 18.2899 68.6557 17.6585C69.2887 17.0272 69.6081 16.1071 69.6081 14.8982Z" fill="#FCFCFC"/>
<path id="o" d="M79.7188 16.3124C79.7188 17.3386 79.4183 18.1795 78.8172 18.8391C78.1871 19.5172 77.3523 19.8555 76.3099 19.8555C75.3052 19.8555 74.5052 19.5313 73.9085 18.8802C73.3133 18.2304 73.0156 17.4108 73.0156 16.4228C73.0156 15.3894 73.322 14.5415 73.9375 13.8833C74.5531 13.225 75.3807 12.8952 76.4231 12.8952C77.4278 12.8952 78.235 13.2194 78.8463 13.8691C79.427 14.5004 79.7188 15.3158 79.7188 16.3124ZM78.1407 16.3605C78.1407 15.7447 78.0042 15.2167 77.7327 14.7765C77.4133 14.2442 76.9589 13.9781 76.368 13.9781C75.7567 13.9781 75.2921 14.2442 74.9727 14.7765C74.6998 15.2167 74.5648 15.7532 74.5648 16.3874C74.5648 17.0031 74.7012 17.5311 74.9727 17.9714C75.3023 18.5036 75.7611 18.7698 76.3534 18.7698C76.9342 18.7698 77.3901 18.4994 77.7182 17.9572C77.9998 17.5085 78.1407 16.9762 78.1407 16.3605Z" fill="#FCFCFC"/>
<path id="w" d="M91.1251 13.0311L88.9836 19.7041H87.5899L86.7028 16.8064C86.4778 16.0831 86.2948 15.364 86.1525 14.6505H86.1249C85.9928 15.3838 85.8099 16.1015 85.5747 16.8064L84.6324 19.7041H83.2227L81.209 13.0311H82.7726L83.5465 16.2034C83.7337 16.9536 83.8877 17.6685 84.0111 18.3451H84.0386C84.1519 17.7874 84.3392 17.0768 84.6034 16.2175L85.5747 13.0325H86.8146L87.7452 16.1496C87.9703 16.9098 88.1532 17.6416 88.294 18.3465H88.3361C88.4392 17.66 88.5946 16.9282 88.8007 16.1496L89.6312 13.0325H91.1251V13.0311Z" fill="#FCFCFC"/>
<path id="n" d="M99.0127 19.7041H97.4912V15.8821C97.4912 14.7043 97.0324 14.1154 96.1119 14.1154C95.6604 14.1154 95.296 14.2768 95.0129 14.601C94.7327 14.9251 94.5904 15.3073 94.5904 15.7448V19.7026H93.0688V14.9379C93.0688 14.3518 93.05 13.7163 93.0137 13.0283H94.3508L94.422 14.0716H94.4641C94.6412 13.7474 94.9054 13.4799 95.2524 13.2661C95.6647 13.017 96.1264 12.891 96.6317 12.891C97.2705 12.891 97.8019 13.092 98.2244 13.4954C98.7499 13.9895 99.0127 14.727 99.0127 15.7065V19.7041Z" fill="#FCFCFC"/>
<path id="l" d="M103.208 19.7041H101.688V9.9693H103.208V19.7041Z" fill="#FCFCFC"/>
<path id="o_2" d="M112.166 16.3124C112.166 17.3386 111.866 18.1795 111.264 18.8391C110.634 19.5172 109.798 19.8555 108.757 19.8555C107.751 19.8555 106.951 19.5313 106.356 18.8802C105.761 18.2304 105.463 17.4108 105.463 16.4228C105.463 15.3894 105.769 14.5415 106.385 13.8833C107 13.225 107.828 12.8952 108.869 12.8952C109.875 12.8952 110.681 13.2194 111.294 13.8691C111.874 14.5004 112.166 15.3158 112.166 16.3124ZM110.586 16.3605C110.586 15.7447 110.45 15.2167 110.179 14.7765C109.861 14.2442 109.405 13.9781 108.815 13.9781C108.203 13.9781 107.738 14.2442 107.42 14.7765C107.147 15.2167 107.012 15.7532 107.012 16.3874C107.012 17.0031 107.148 17.5311 107.42 17.9714C107.75 18.5036 108.208 18.7698 108.801 18.7698C109.381 18.7698 109.836 18.4994 110.164 17.9572C110.447 17.5085 110.586 16.9762 110.586 16.3605Z" fill="#FCFCFC"/>
<path id="a" d="M119.531 19.704H118.165L118.051 18.9354H118.009C117.542 19.5483 116.875 19.8555 116.01 19.8555C115.364 19.8555 114.841 19.6531 114.448 19.251C114.091 18.8858 113.912 18.4314 113.912 17.8921C113.912 17.0768 114.261 16.4553 114.962 16.025C115.662 15.5947 116.646 15.3837 117.913 15.3937V15.2691C117.913 14.39 117.44 13.9512 116.492 13.9512C115.817 13.9512 115.222 14.1168 114.708 14.4452L114.398 13.4713C115.034 13.0877 115.82 12.8952 116.746 12.8952C118.535 12.8952 119.432 13.8153 119.432 15.6555V18.1129C119.432 18.7797 119.465 19.3105 119.531 19.704ZM117.951 17.4108V16.3817C116.273 16.3534 115.434 16.8021 115.434 17.7265C115.434 18.0747 115.529 18.3352 115.725 18.5093C115.921 18.6834 116.171 18.7698 116.469 18.7698C116.803 18.7698 117.115 18.6664 117.399 18.4612C117.685 18.2545 117.861 17.9926 117.926 17.6713C117.942 17.5991 117.951 17.5113 117.951 17.4108Z" fill="#FCFCFC"/>
<path id="d" d="M128.176 19.7041H126.826L126.755 18.6325H126.712C126.281 19.4479 125.547 19.8555 124.514 19.8555C123.69 19.8555 123.003 19.5399 122.459 18.9085C121.914 18.2772 121.643 17.4576 121.643 16.4511C121.643 15.3711 121.937 14.4962 122.53 13.8281C123.103 13.2053 123.806 12.8938 124.642 12.8938C125.561 12.8938 126.204 13.1954 126.57 13.7998H126.599V9.9693H128.122V17.9063C128.122 18.5561 128.14 19.1548 128.176 19.7041ZM126.599 16.8899V15.7773C126.599 15.5848 126.585 15.4291 126.557 15.3102C126.471 14.9535 126.287 14.6534 126.007 14.4113C125.724 14.1693 125.383 14.0475 124.989 14.0475C124.421 14.0475 123.977 14.2669 123.65 14.7072C123.327 15.1474 123.163 15.7094 123.163 16.3959C123.163 17.0556 123.318 17.5907 123.63 18.0026C123.96 18.4414 124.404 18.6608 124.96 18.6608C125.459 18.6608 125.859 18.4782 126.162 18.1116C126.455 17.7733 126.599 17.3656 126.599 16.8899Z" fill="#FCFCFC"/>
<path id="o_3" d="M141.19 16.3124C141.19 17.3386 140.889 18.1795 140.288 18.8391C139.658 19.5172 138.824 19.8555 137.781 19.8555C136.777 19.8555 135.977 19.5313 135.379 18.8802C134.784 18.2304 134.486 17.4108 134.486 16.4228C134.486 15.3894 134.793 14.5415 135.408 13.8833C136.024 13.225 136.851 12.8952 137.895 12.8952C138.898 12.8952 139.707 13.2194 140.317 13.8691C140.898 14.5004 141.19 15.3158 141.19 16.3124ZM139.613 16.3605C139.613 15.7447 139.476 15.2167 139.205 14.7765C138.884 14.2442 138.431 13.9781 137.839 13.9781C137.229 13.9781 136.764 14.2442 136.443 14.7765C136.17 15.2167 136.035 15.7532 136.035 16.3874C136.035 17.0031 136.172 17.5311 136.443 17.9714C136.773 18.5036 137.232 18.7698 137.824 18.7698C138.405 18.7698 138.862 18.4994 139.19 17.9572C139.471 17.5085 139.613 16.9762 139.613 16.3605Z" fill="#FCFCFC"/>
<path id="n_2" d="M149.371 19.7041H147.851V15.8821C147.851 14.7043 147.392 14.1154 146.47 14.1154C146.018 14.1154 145.654 14.2768 145.372 14.601C145.091 14.9251 144.95 15.3073 144.95 15.7448V19.7026H143.427V14.9379C143.427 14.3518 143.409 13.7163 143.373 13.0283H144.709L144.78 14.0716H144.822C145.001 13.7474 145.265 13.4799 145.61 13.2661C146.024 13.017 146.484 12.891 146.991 12.891C147.628 12.891 148.16 13.092 148.582 13.4954C149.109 13.9895 149.371 14.727 149.371 15.7065V19.7041Z" fill="#FCFCFC"/>
<path id="t" d="M159.61 14.1423H157.934V17.384C157.934 18.2078 158.232 18.6197 158.821 18.6197C159.094 18.6197 159.321 18.5971 159.499 18.5504L159.539 19.6757C159.238 19.7862 158.843 19.8414 158.357 19.8414C157.756 19.8414 157.288 19.663 156.95 19.3063C156.61 18.9496 156.442 18.3494 156.442 17.5071V14.1423H155.441V13.0311H156.442V11.8081L157.933 11.3693V13.0297H159.608V14.1423H159.61Z" fill="#FCFCFC"/>
<path id="h" d="M167.665 19.7041H166.142V15.9104C166.142 14.7142 165.683 14.1155 164.764 14.1155C164.058 14.1155 163.576 14.4623 163.312 15.1559C163.267 15.3017 163.241 15.4801 163.241 15.6896V19.7027H161.721V9.9693H163.241V13.9909H163.27C163.749 13.2591 164.436 12.8938 165.326 12.8938C165.956 12.8938 166.477 13.0948 166.891 13.4983C167.406 14.0008 167.665 14.7482 167.665 15.7363V19.7041Z" fill="#FCFCFC"/>
<path id="e" d="M175.973 16.0519C175.973 16.3181 175.953 16.5417 175.917 16.7243H171.354C171.374 17.384 171.592 17.8865 172.014 18.2347C172.4 18.5461 172.898 18.7019 173.508 18.7019C174.183 18.7019 174.799 18.5971 175.353 18.3862L175.592 19.4167C174.943 19.6913 174.179 19.8286 173.295 19.8286C172.235 19.8286 171.4 19.5243 170.796 18.9156C170.189 18.3069 169.889 17.4901 169.889 16.4653C169.889 15.4588 170.169 14.6208 170.734 13.9527C171.323 13.2392 172.12 12.8825 173.126 12.8825C174.111 12.8825 174.858 13.2392 175.364 13.9527C175.772 14.5189 175.973 15.2196 175.973 16.0519ZM174.522 15.6683C174.533 15.2281 174.433 14.8487 174.227 14.5288C173.963 14.1169 173.56 13.9102 173.016 13.9102C172.519 13.9102 172.114 14.1112 171.805 14.5146C171.552 14.836 171.403 15.2196 171.354 15.6683H174.522Z" fill="#FCFCFC"/>
</g>
<g id="App Store">
<path id="A" d="M77.8838 45.2844H74.5867L72.7806 39.751H66.5028L64.7823 45.2844H61.5723L67.792 26.4462H71.6336L77.8838 45.2844ZM72.2361 37.4295L70.6028 32.5105C70.43 32.0079 70.1062 30.8245 69.6286 28.9617H69.5705C69.3803 29.7629 69.074 30.9463 68.6529 32.5105L67.0486 37.4295H72.2361Z" fill="#FCFCFC"/>
<path id="p" d="M93.8795 38.3256C93.8795 40.6358 93.2392 42.4619 91.9586 43.8024C90.8117 44.9957 89.3874 45.5916 87.6873 45.5916C85.8522 45.5916 84.5339 44.949 83.731 43.6637H83.6729V50.8193H80.5776V36.1725C80.5776 34.7202 80.5384 33.2296 80.4629 31.7008H83.1851L83.3579 33.8539H83.416C84.4482 32.2316 86.0148 31.4219 88.1171 31.4219C89.7605 31.4219 91.1325 32.0547 92.2301 33.3216C93.3306 34.5899 93.8795 36.2575 93.8795 38.3256ZM90.726 38.436C90.726 37.1139 90.4211 36.0239 89.8085 35.1661C89.1392 34.2715 88.2405 33.8241 87.1138 33.8241C86.3501 33.8241 85.6562 34.0733 85.0362 34.5645C84.4148 35.0599 84.0083 35.7068 83.8181 36.508C83.7223 36.8817 83.6744 37.1875 83.6744 37.4281V39.693C83.6744 40.6811 83.9851 41.5148 84.6065 42.1957C85.2279 42.8766 86.0351 43.2163 87.0282 43.2163C88.194 43.2163 89.1014 42.7775 89.7504 41.9027C90.4008 41.0265 90.726 39.8714 90.726 38.436Z" fill="#FCFCFC"/>
<path id="p_2" d="M109.903 38.3256C109.903 40.6358 109.263 42.4619 107.981 43.8024C106.836 44.9957 105.411 45.5916 103.711 45.5916C101.876 45.5916 100.558 44.949 99.7564 43.6637H99.6983V50.8193H96.603V36.1725C96.603 34.7202 96.5638 33.2296 96.4883 31.7008H99.2105L99.3833 33.8539H99.4413C100.472 32.2316 102.039 31.4219 104.142 31.4219C105.784 31.4219 107.156 32.0547 108.257 33.3216C109.353 34.5899 109.903 36.2575 109.903 38.3256ZM106.75 38.436C106.75 37.1139 106.444 36.0239 105.831 35.1661C105.162 34.2715 104.266 33.8241 103.138 33.8241C102.373 33.8241 101.68 34.0733 101.059 34.5645C100.437 35.0599 100.032 35.7068 99.8421 36.508C99.7477 36.8817 99.6983 37.1875 99.6983 37.4281V39.693C99.6983 40.6811 100.009 41.5148 100.628 42.1957C101.249 42.8752 102.056 43.2163 103.052 43.2163C104.218 43.2163 105.125 42.7775 105.774 41.9027C106.425 41.0265 106.75 39.8714 106.75 38.436Z" fill="#FCFCFC"/>
<path id="S" d="M127.819 40.0016C127.819 41.604 127.248 42.9078 126.102 43.9142C124.844 45.0141 123.091 45.5633 120.839 45.5633C118.76 45.5633 117.094 45.1726 115.832 44.3898L116.549 41.8744C117.908 42.6756 119.399 43.0776 121.024 43.0776C122.19 43.0776 123.097 42.82 123.749 42.3076C124.398 41.7951 124.722 41.1072 124.722 40.2493C124.722 39.4849 124.455 38.8409 123.919 38.3185C123.386 37.7962 122.496 37.3107 121.253 36.8619C117.87 35.6318 116.18 33.8298 116.18 31.4602C116.18 29.9115 116.773 28.6418 117.959 27.6537C119.141 26.6643 120.718 26.1702 122.689 26.1702C124.447 26.1702 125.908 26.4689 127.074 27.0649L126.3 29.5251C125.211 28.9475 123.98 28.6588 122.602 28.6588C121.513 28.6588 120.662 28.9207 120.053 29.4416C119.537 29.9073 119.279 30.4749 119.279 31.1473C119.279 31.8919 119.573 32.5077 120.166 32.9918C120.681 33.4391 121.618 33.9232 122.977 34.4456C124.639 35.0981 125.86 35.8611 126.645 36.7359C127.428 37.6079 127.819 38.6993 127.819 40.0016Z" fill="#FCFCFC"/>
<path id="t_2" d="M138.053 33.9657H134.641V40.5608C134.641 42.2382 135.242 43.0762 136.447 43.0762C137 43.0762 137.459 43.0295 137.822 42.9361L137.908 45.2279C137.298 45.4501 136.495 45.5619 135.501 45.5619C134.278 45.5619 133.323 45.1981 132.633 44.472C131.946 43.7444 131.601 42.5242 131.601 40.8099V33.9629H129.568V31.698H131.601V29.2109L134.641 28.3162V31.698H138.053V33.9657Z" fill="#FCFCFC"/>
<path id="o_4" d="M153.447 38.3809C153.447 40.4688 152.834 42.183 151.612 43.5236C150.33 44.9037 148.628 45.5917 146.507 45.5917C144.463 45.5917 142.835 44.9306 141.621 43.6085C140.408 42.2864 139.801 40.6174 139.801 38.6059C139.801 36.501 140.425 34.7769 141.678 33.4363C142.928 32.0944 144.615 31.4234 146.736 31.4234C148.78 31.4234 150.425 32.0845 151.667 33.408C152.854 34.6919 153.447 36.3495 153.447 38.3809ZM150.235 38.4785C150.235 37.2258 149.961 36.1514 149.405 35.2553C148.756 34.171 147.828 33.6303 146.626 33.6303C145.382 33.6303 144.437 34.1724 143.788 35.2553C143.232 36.1528 142.957 37.2442 142.957 38.5352C142.957 39.7879 143.232 40.8623 143.788 41.757C144.457 42.8413 145.392 43.382 146.598 43.382C147.78 43.382 148.708 42.8299 149.377 41.7286C149.948 40.8156 150.235 39.7299 150.235 38.4785Z" fill="#FCFCFC"/>
<path id="r" d="M163.509 34.355C163.202 34.2998 162.876 34.2715 162.533 34.2715C161.444 34.2715 160.602 34.6721 160.01 35.4747C159.494 36.1824 159.236 37.0771 159.236 38.1571V45.2845H156.142L156.171 35.9786C156.171 34.413 156.132 32.9875 156.055 31.7022H158.751L158.864 34.3012H158.95C159.276 33.408 159.792 32.6889 160.497 32.1495C161.187 31.664 161.932 31.4219 162.735 31.4219C163.021 31.4219 163.279 31.4418 163.509 31.4771V34.355Z" fill="#FCFCFC"/>
<path id="e_2" d="M177.352 37.85C177.352 38.3907 177.316 38.8466 177.239 39.2188H167.953C167.989 40.5608 168.438 41.5871 169.3 42.2948C170.083 42.9276 171.095 43.2447 172.337 43.2447C173.712 43.2447 174.967 43.0309 176.095 42.602L176.58 44.697C175.261 45.2576 173.705 45.5365 171.909 45.5365C169.749 45.5365 168.053 44.9165 166.819 43.6778C165.588 42.4392 164.971 40.776 164.971 38.6894C164.971 36.6411 165.544 34.9354 166.693 33.575C167.895 32.1227 169.519 31.3965 171.564 31.3965C173.571 31.3965 175.092 32.1227 176.124 33.575C176.941 34.7287 177.352 36.1556 177.352 37.85ZM174.4 37.0672C174.421 36.1726 174.219 35.3997 173.799 34.7471C173.264 33.9077 172.44 33.4887 171.333 33.4887C170.321 33.4887 169.498 33.8978 168.869 34.7188C168.354 35.3714 168.047 36.1542 167.953 37.0658H174.4V37.0672Z" fill="#FCFCFC"/>
</g>
</g>
</svg>
