<svg width="48" height="37" viewBox="0 0 48 37" fill="none" xmlns="http://www.w3.org/2000/svg">
<g id="Store">
<g id="Group">
<path id="Vector" d="M45.2925 0.616211H2.88379V36.4999H45.2925V0.616211Z" fill="url(#paint0_linear_7298_123496)" stroke="url(#paint1_linear_7298_123496)" stroke-width="0.44233" stroke-miterlimit="10" stroke-linecap="round" stroke-linejoin="round"/>
<path id="Vector_2" d="M45.2925 24.0374H2.88379V36.4999H45.2925V24.0374Z" fill="url(#paint2_linear_7298_123496)" stroke="url(#paint3_linear_7298_123496)" stroke-width="0.44233" stroke-miterlimit="10" stroke-linecap="round" stroke-linejoin="round"/>
<g id="Group_2">
<path id="Vector_3" d="M30.8447 10.4817H17.335V36.4998H30.8447V10.4817Z" fill="white" stroke="url(#paint4_linear_7298_123496)" stroke-width="0.44233" stroke-miterlimit="10" stroke-linecap="round" stroke-linejoin="round"/>
<path id="Vector_4" d="M29.4143 10.4817H18.29V22.6996H29.4143V10.4817Z" fill="white" stroke="url(#paint5_linear_7298_123496)" stroke-width="0.44233" stroke-miterlimit="10" stroke-linecap="round" stroke-linejoin="round"/>
<path id="Vector_5" d="M29.4143 23.502H18.29V35.7199H29.4143V23.502Z" fill="white" stroke="url(#paint6_linear_7298_123496)" stroke-width="0.44233" stroke-miterlimit="10" stroke-linecap="round" stroke-linejoin="round"/>
<path id="Vector_6" d="M30.3982 23.2789C30.3982 23.7469 30.0187 24.126 29.5512 24.126C29.0836 24.126 28.7041 23.7469 28.7041 23.2789C28.7041 22.811 29.0832 22.4319 29.5512 22.4319C30.0192 22.4319 30.3982 22.811 30.3982 23.2789Z" fill="white" stroke="url(#paint7_linear_7298_123496)" stroke-width="0.44233" stroke-miterlimit="10" stroke-linecap="round" stroke-linejoin="round"/>
<path id="Vector_7" d="M29.2358 14.4055L24.2666 19.4498" stroke="url(#paint8_linear_7298_123496)" stroke-width="0.221165" stroke-miterlimit="10" stroke-linecap="round" stroke-linejoin="round"/>
<path id="Vector_8" d="M25.58 15.7432L20.6104 20.7875" stroke="url(#paint9_linear_7298_123496)" stroke-width="0.221165" stroke-miterlimit="10" stroke-linecap="round" stroke-linejoin="round"/>
<path id="Vector_9" d="M29.2358 26.1772L24.2666 31.2215" stroke="url(#paint10_linear_7298_123496)" stroke-width="0.221165" stroke-miterlimit="10" stroke-linecap="round" stroke-linejoin="round"/>
<path id="Vector_10" d="M25.58 27.5154L20.6104 32.5592" stroke="url(#paint11_linear_7298_123496)" stroke-width="0.221165" stroke-miterlimit="10" stroke-linecap="round" stroke-linejoin="round"/>
</g>
<g id="Group_3">
<path id="Vector_11" d="M44.3087 10.4817H33.6963V25.91H44.3087V10.4817Z" fill="white" stroke="url(#paint12_linear_7298_123496)" stroke-width="0.44233" stroke-miterlimit="10" stroke-linecap="round" stroke-linejoin="round"/>
<path id="Vector_12" d="M43.4155 14.762L38.4463 19.8062" stroke="url(#paint13_linear_7298_123496)" stroke-width="0.221165" stroke-miterlimit="10" stroke-linecap="round" stroke-linejoin="round"/>
<path id="Vector_13" d="M39.7612 16.1001L34.792 21.1439" stroke="url(#paint14_linear_7298_123496)" stroke-width="0.221165" stroke-miterlimit="10" stroke-linecap="round" stroke-linejoin="round"/>
</g>
<g id="Group_4">
<path id="Vector_14" d="M14.2541 10.4817H3.6416V25.91H14.2541V10.4817Z" fill="white" stroke="url(#paint15_linear_7298_123496)" stroke-width="0.44233" stroke-miterlimit="10" stroke-linecap="round" stroke-linejoin="round"/>
<path id="Vector_15" d="M12.9174 14.762L7.94824 19.8062" stroke="url(#paint16_linear_7298_123496)" stroke-width="0.221165" stroke-miterlimit="10" stroke-linecap="round" stroke-linejoin="round"/>
<path id="Vector_16" d="M9.26116 16.1001L4.29199 21.1439" stroke="url(#paint17_linear_7298_123496)" stroke-width="0.221165" stroke-miterlimit="10" stroke-linecap="round" stroke-linejoin="round"/>
</g>
<g id="Group_5">
<g id="Group_6">
<path id="Vector_17" d="M3.59157 12.6997H3.38721C2.15664 12.6997 1.15918 11.7022 1.15918 10.4717V6.45312H5.82005V10.4717C5.8196 11.7022 4.82214 12.6997 3.59157 12.6997Z" fill="url(#paint18_linear_7298_123496)"/>
<g id="Clip path group">
<mask id="mask0_7298_123496" style="mask-type:luminance" maskUnits="userSpaceOnUse" x="1" y="6" width="5" height="7">
<g id="XMLID_00000054978018524868285060000002406537238831961220_">
<path id="Vector_18" d="M3.58962 12.6997H3.38526C2.15469 12.6997 1.15723 11.7022 1.15723 10.4717V6.45312H5.81809V10.4717C5.81765 11.7022 4.82019 12.6997 3.58962 12.6997Z" fill="white"/>
</g>
</mask>
<g mask="url(#mask0_7298_123496)">
<path id="Vector_19" opacity="0.3" d="M3.58962 12.6997H3.38526C2.15469 12.6997 1.15723 11.7022 1.15723 10.4717V6.45312H5.81809V10.4717C5.81765 11.7022 4.82019 12.6997 3.58962 12.6997Z" fill="black"/>
</g>
</g>
<path id="Vector_20" d="M3.59157 12.6997H3.38721C2.15664 12.6997 1.15918 11.7022 1.15918 10.4717V6.45312H5.82005V10.4717C5.8196 11.7022 4.82214 12.6997 3.59157 12.6997Z" stroke="url(#paint19_linear_7298_123496)" stroke-width="0.44233" stroke-miterlimit="10" stroke-linecap="round" stroke-linejoin="round"/>
</g>
<path id="Vector_21" d="M8.15016 12.6997H7.94581C6.71524 12.6997 5.71777 11.7022 5.71777 10.4717V6.45312H10.3786V10.4717C10.3782 11.7022 9.38074 12.6997 8.15016 12.6997Z" fill="#B2B2B2" stroke="url(#paint20_linear_7298_123496)" stroke-width="0.44233" stroke-miterlimit="10" stroke-linecap="round" stroke-linejoin="round"/>
<g id="Group_7">
<path id="Vector_22" d="M12.7088 12.6994H12.5044C11.2738 12.6994 10.2764 11.702 10.2764 10.4714V6.45288H14.9372V10.4714C14.9368 11.702 13.9393 12.6994 12.7088 12.6994Z" fill="url(#paint21_linear_7298_123496)"/>
<g id="Clip path group_2">
<mask id="mask1_7298_123496" style="mask-type:luminance" maskUnits="userSpaceOnUse" x="10" y="6" width="5" height="7">
<g id="XMLID_00000143591058429106787660000004382312863599953813_">
<path id="Vector_23" d="M12.7088 12.6994H12.5044C11.2738 12.6994 10.2764 11.702 10.2764 10.4714V6.45288H14.9372V10.4714C14.9368 11.702 13.9393 12.6994 12.7088 12.6994Z" fill="white"/>
</g>
</mask>
<g mask="url(#mask1_7298_123496)">
<path id="Vector_24" opacity="0.3" d="M12.7088 12.6994H12.5044C11.2738 12.6994 10.2764 11.702 10.2764 10.4714V6.45288H14.9372V10.4714C14.9368 11.702 13.9393 12.6994 12.7088 12.6994Z" fill="black"/>
</g>
</g>
<path id="Vector_25" d="M12.7088 12.6994H12.5044C11.2738 12.6994 10.2764 11.702 10.2764 10.4714V6.45288H14.9372V10.4714C14.9368 11.702 13.9393 12.6994 12.7088 12.6994Z" stroke="url(#paint22_linear_7298_123496)" stroke-width="0.44233" stroke-miterlimit="10" stroke-linecap="round" stroke-linejoin="round"/>
</g>
<path id="Vector_26" d="M17.2654 12.6997H17.061C15.8305 12.6997 14.833 11.7022 14.833 10.4717V6.45312H19.4939V10.4717C19.4934 11.7022 18.4955 12.6997 17.2654 12.6997Z" fill="#B2B2B2" stroke="url(#paint23_linear_7298_123496)" stroke-width="0.44233" stroke-miterlimit="10" stroke-linecap="round" stroke-linejoin="round"/>
<g id="Group_8">
<path id="Vector_27" d="M21.824 12.6994H21.6196C20.3891 12.6994 19.3916 11.702 19.3916 10.4714V6.45288H24.0525V10.4714C24.052 11.702 23.0546 12.6994 21.824 12.6994Z" fill="url(#paint24_linear_7298_123496)"/>
<g id="Clip path group_3">
<mask id="mask2_7298_123496" style="mask-type:luminance" maskUnits="userSpaceOnUse" x="19" y="6" width="6" height="7">
<g id="XMLID_00000028315520450795190330000002782391423562070449_">
<path id="Vector_28" d="M21.822 12.6994H21.6177C20.3871 12.6994 19.3896 11.702 19.3896 10.4714V6.45288H24.0505V10.4714C24.0501 11.702 23.0526 12.6994 21.822 12.6994Z" fill="white"/>
</g>
</mask>
<g mask="url(#mask2_7298_123496)">
<path id="Vector_29" opacity="0.3" d="M21.822 12.6994H21.6177C20.3871 12.6994 19.3896 11.702 19.3896 10.4714V6.45288H24.0505V10.4714C24.0501 11.702 23.0526 12.6994 21.822 12.6994Z" fill="black"/>
</g>
</g>
<path id="Vector_30" d="M21.824 12.6994H21.6196C20.3891 12.6994 19.3916 11.702 19.3916 10.4714V6.45288H24.0525V10.4714C24.052 11.702 23.0546 12.6994 21.824 12.6994Z" stroke="url(#paint25_linear_7298_123496)" stroke-width="0.44233" stroke-miterlimit="10" stroke-linecap="round" stroke-linejoin="round"/>
</g>
<path id="Vector_31" d="M26.3826 12.6997H26.1782C24.9477 12.6997 23.9502 11.7022 23.9502 10.4717V6.45312H28.6111V10.4717C28.6106 11.7022 27.6132 12.6997 26.3826 12.6997Z" fill="#B2B2B2" stroke="url(#paint26_linear_7298_123496)" stroke-width="0.44233" stroke-miterlimit="10" stroke-linecap="round" stroke-linejoin="round"/>
<g id="Group_9">
<path id="Vector_32" d="M30.9392 12.6994H30.7349C29.5043 12.6994 28.5068 11.702 28.5068 10.4714V6.45288H33.1677V10.4714C33.1673 11.702 32.1698 12.6994 30.9392 12.6994Z" fill="url(#paint27_linear_7298_123496)"/>
<g id="Clip path group_4">
<mask id="mask3_7298_123496" style="mask-type:luminance" maskUnits="userSpaceOnUse" x="28" y="6" width="6" height="7">
<g id="XMLID_00000051374823572009995590000000976786982278422943_">
<path id="Vector_33" d="M30.9412 12.6994H30.7368C29.5063 12.6994 28.5088 11.702 28.5088 10.4714V6.45288H33.1697V10.4714C33.1692 11.702 32.1718 12.6994 30.9412 12.6994Z" fill="white"/>
</g>
</mask>
<g mask="url(#mask3_7298_123496)">
<path id="Vector_34" opacity="0.3" d="M30.9412 12.6994H30.7368C29.5063 12.6994 28.5088 11.702 28.5088 10.4714V6.45288H33.1697V10.4714C33.1692 11.702 32.1718 12.6994 30.9412 12.6994Z" fill="black"/>
</g>
</g>
<path id="Vector_35" d="M30.9392 12.6994H30.7349C29.5043 12.6994 28.5068 11.702 28.5068 10.4714V6.45288H33.1677V10.4714C33.1673 11.702 32.1698 12.6994 30.9392 12.6994Z" stroke="url(#paint28_linear_7298_123496)" stroke-width="0.44233" stroke-miterlimit="10" stroke-linecap="round" stroke-linejoin="round"/>
</g>
<path id="Vector_36" d="M35.4978 12.6997H35.2935C34.0629 12.6997 33.0654 11.7022 33.0654 10.4717V6.45312H37.7263V10.4717C37.7259 11.7022 36.7284 12.6997 35.4978 12.6997Z" fill="#B2B2B2" stroke="url(#paint29_linear_7298_123496)" stroke-width="0.44233" stroke-miterlimit="10" stroke-linecap="round" stroke-linejoin="round"/>
<g id="Group_10">
<path id="Vector_37" d="M40.0564 12.6997H39.8521C38.6215 12.6997 37.624 11.7022 37.624 10.4717V6.45312H42.2849V10.4717C42.2849 11.7022 41.2874 12.6997 40.0564 12.6997Z" fill="url(#paint30_linear_7298_123496)"/>
<g id="Clip path group_5">
<mask id="mask4_7298_123496" style="mask-type:luminance" maskUnits="userSpaceOnUse" x="37" y="6" width="6" height="7">
<g id="XMLID_00000163031029222758921770000016147900375802109830_">
<path id="Vector_38" d="M40.0545 12.6997H39.8501C38.6195 12.6997 37.6221 11.7022 37.6221 10.4717V6.45312H42.2829V10.4717C42.2829 11.7022 41.2855 12.6997 40.0545 12.6997Z" fill="white"/>
</g>
</mask>
<g mask="url(#mask4_7298_123496)">
<path id="Vector_39" opacity="0.3" d="M40.0545 12.6997H39.8501C38.6195 12.6997 37.6221 11.7022 37.6221 10.4717V6.45312H42.2829V10.4717C42.2829 11.7022 41.2855 12.6997 40.0545 12.6997Z" fill="black"/>
</g>
</g>
<path id="Vector_40" d="M40.0564 12.6997H39.8521C38.6215 12.6997 37.624 11.7022 37.624 10.4717V6.45312H42.2849V10.4717C42.2849 11.7022 41.2874 12.6997 40.0564 12.6997Z" stroke="url(#paint31_linear_7298_123496)" stroke-width="0.44233" stroke-miterlimit="10" stroke-linecap="round" stroke-linejoin="round"/>
</g>
<path id="Vector_41" d="M44.615 12.6997H44.4107C43.1801 12.6997 42.1826 11.7022 42.1826 10.4717V6.45312H46.8435V10.4717C46.843 11.7022 45.8456 12.6997 44.615 12.6997Z" fill="#B2B2B2" stroke="url(#paint32_linear_7298_123496)" stroke-width="0.44233" stroke-miterlimit="10" stroke-linecap="round" stroke-linejoin="round"/>
</g>
<g id="Group_11">
<path id="Vector_42" d="M5.82005 0.5H1.15918V6.74652H5.82005V0.5Z" fill="url(#paint33_linear_7298_123496)" stroke="url(#paint34_linear_7298_123496)" stroke-width="0.44233" stroke-miterlimit="10" stroke-linecap="round" stroke-linejoin="round"/>
<path id="Vector_43" d="M10.3786 0.5H5.71777V6.74652H10.3786V0.5Z" fill="white" stroke="url(#paint35_linear_7298_123496)" stroke-width="0.44233" stroke-miterlimit="10" stroke-linecap="round" stroke-linejoin="round"/>
<path id="Vector_44" d="M14.9353 0.5H10.2744V6.74652H14.9353V0.5Z" fill="url(#paint36_linear_7298_123496)" stroke="url(#paint37_linear_7298_123496)" stroke-width="0.44233" stroke-miterlimit="10" stroke-linecap="round" stroke-linejoin="round"/>
<path id="Vector_45" d="M19.4939 0.5H14.833V6.74652H19.4939V0.5Z" fill="white" stroke="url(#paint38_linear_7298_123496)" stroke-width="0.44233" stroke-miterlimit="10" stroke-linecap="round" stroke-linejoin="round"/>
<path id="Vector_46" d="M24.0525 0.5H19.3916V6.74652H24.0525V0.5Z" fill="url(#paint39_linear_7298_123496)" stroke="url(#paint40_linear_7298_123496)" stroke-width="0.44233" stroke-miterlimit="10" stroke-linecap="round" stroke-linejoin="round"/>
<path id="Vector_47" d="M28.6111 0.5H23.9502V6.74652H28.6111V0.5Z" fill="white" stroke="url(#paint41_linear_7298_123496)" stroke-width="0.44233" stroke-miterlimit="10" stroke-linecap="round" stroke-linejoin="round"/>
<path id="Vector_48" d="M33.1697 0.5H28.5088V6.74652H33.1697V0.5Z" fill="url(#paint42_linear_7298_123496)" stroke="url(#paint43_linear_7298_123496)" stroke-width="0.44233" stroke-miterlimit="10" stroke-linecap="round" stroke-linejoin="round"/>
<path id="Vector_49" d="M37.7263 0.5H33.0654V6.74652H37.7263V0.5Z" fill="white" stroke="url(#paint44_linear_7298_123496)" stroke-width="0.44233" stroke-miterlimit="10" stroke-linecap="round" stroke-linejoin="round"/>
<path id="Vector_50" d="M42.2849 0.5H37.624V6.74652H42.2849V0.5Z" fill="url(#paint45_linear_7298_123496)" stroke="url(#paint46_linear_7298_123496)" stroke-width="0.44233" stroke-miterlimit="10" stroke-linecap="round" stroke-linejoin="round"/>
<path id="Vector_51" d="M46.8435 0.5H42.1826V6.74652H46.8435V0.5Z" fill="white" stroke="url(#paint47_linear_7298_123496)" stroke-width="0.44233" stroke-miterlimit="10" stroke-linecap="round" stroke-linejoin="round"/>
</g>
</g>
</g>
<defs>
<linearGradient id="paint0_linear_7298_123496" x1="2.88379" y1="18.5581" x2="45.2925" y2="18.5581" gradientUnits="userSpaceOnUse">
<stop stop-color="#FFC136"/>
<stop offset="0.197568" stop-color="#FAC142"/>
<stop offset="0.525" stop-color="#FFD168"/>
<stop offset="0.771328" stop-color="#F5BC3A"/>
<stop offset="1" stop-color="#E09B00"/>
</linearGradient>
<linearGradient id="paint1_linear_7298_123496" x1="2.88379" y1="18.5581" x2="45.2925" y2="18.5581" gradientUnits="userSpaceOnUse">
<stop stop-color="#0032A3"/>
<stop offset="0.25" stop-color="#1A51CB"/>
<stop offset="0.5" stop-color="#3B66C8"/>
<stop offset="0.75" stop-color="#1A51CB"/>
<stop offset="1" stop-color="#0032A3"/>
</linearGradient>
<linearGradient id="paint2_linear_7298_123496" x1="2.88379" y1="30.2686" x2="45.2925" y2="30.2686" gradientUnits="userSpaceOnUse">
<stop stop-color="#0032A3"/>
<stop offset="0.25" stop-color="#1A51CB"/>
<stop offset="0.5" stop-color="#3B66C8"/>
<stop offset="0.75" stop-color="#1A51CB"/>
<stop offset="1" stop-color="#0032A3"/>
</linearGradient>
<linearGradient id="paint3_linear_7298_123496" x1="2.88379" y1="30.2686" x2="45.2925" y2="30.2686" gradientUnits="userSpaceOnUse">
<stop stop-color="#0032A3"/>
<stop offset="0.25" stop-color="#1A51CB"/>
<stop offset="0.5" stop-color="#3B66C8"/>
<stop offset="0.75" stop-color="#1A51CB"/>
<stop offset="1" stop-color="#0032A3"/>
</linearGradient>
<linearGradient id="paint4_linear_7298_123496" x1="17.335" y1="23.4907" x2="30.8447" y2="23.4907" gradientUnits="userSpaceOnUse">
<stop stop-color="#0032A3"/>
<stop offset="0.25" stop-color="#1A51CB"/>
<stop offset="0.5" stop-color="#3B66C8"/>
<stop offset="0.75" stop-color="#1A51CB"/>
<stop offset="1" stop-color="#0032A3"/>
</linearGradient>
<linearGradient id="paint5_linear_7298_123496" x1="18.29" y1="16.5907" x2="29.4143" y2="16.5907" gradientUnits="userSpaceOnUse">
<stop stop-color="#0032A3"/>
<stop offset="0.25" stop-color="#1A51CB"/>
<stop offset="0.5" stop-color="#3B66C8"/>
<stop offset="0.75" stop-color="#1A51CB"/>
<stop offset="1" stop-color="#0032A3"/>
</linearGradient>
<linearGradient id="paint6_linear_7298_123496" x1="18.29" y1="29.6109" x2="29.4143" y2="29.6109" gradientUnits="userSpaceOnUse">
<stop stop-color="#0032A3"/>
<stop offset="0.25" stop-color="#1A51CB"/>
<stop offset="0.5" stop-color="#3B66C8"/>
<stop offset="0.75" stop-color="#1A51CB"/>
<stop offset="1" stop-color="#0032A3"/>
</linearGradient>
<linearGradient id="paint7_linear_7298_123496" x1="28.7041" y1="23.2789" x2="30.3982" y2="23.2789" gradientUnits="userSpaceOnUse">
<stop stop-color="#0032A3"/>
<stop offset="0.25" stop-color="#1A51CB"/>
<stop offset="0.5" stop-color="#3B66C8"/>
<stop offset="0.75" stop-color="#1A51CB"/>
<stop offset="1" stop-color="#0032A3"/>
</linearGradient>
<linearGradient id="paint8_linear_7298_123496" x1="24.2666" y1="16.9277" x2="29.2358" y2="16.9277" gradientUnits="userSpaceOnUse">
<stop stop-color="#0032A3"/>
<stop offset="0.25" stop-color="#1A51CB"/>
<stop offset="0.5" stop-color="#3B66C8"/>
<stop offset="0.75" stop-color="#1A51CB"/>
<stop offset="1" stop-color="#0032A3"/>
</linearGradient>
<linearGradient id="paint9_linear_7298_123496" x1="20.6104" y1="18.2653" x2="25.58" y2="18.2653" gradientUnits="userSpaceOnUse">
<stop stop-color="#0032A3"/>
<stop offset="0.25" stop-color="#1A51CB"/>
<stop offset="0.5" stop-color="#3B66C8"/>
<stop offset="0.75" stop-color="#1A51CB"/>
<stop offset="1" stop-color="#0032A3"/>
</linearGradient>
<linearGradient id="paint10_linear_7298_123496" x1="24.2666" y1="28.6994" x2="29.2358" y2="28.6994" gradientUnits="userSpaceOnUse">
<stop stop-color="#0032A3"/>
<stop offset="0.25" stop-color="#1A51CB"/>
<stop offset="0.5" stop-color="#3B66C8"/>
<stop offset="0.75" stop-color="#1A51CB"/>
<stop offset="1" stop-color="#0032A3"/>
</linearGradient>
<linearGradient id="paint11_linear_7298_123496" x1="20.6104" y1="30.0373" x2="25.58" y2="30.0373" gradientUnits="userSpaceOnUse">
<stop stop-color="#0032A3"/>
<stop offset="0.25" stop-color="#1A51CB"/>
<stop offset="0.5" stop-color="#3B66C8"/>
<stop offset="0.75" stop-color="#1A51CB"/>
<stop offset="1" stop-color="#0032A3"/>
</linearGradient>
<linearGradient id="paint12_linear_7298_123496" x1="33.6963" y1="18.1959" x2="44.3087" y2="18.1959" gradientUnits="userSpaceOnUse">
<stop stop-color="#0032A3"/>
<stop offset="0.25" stop-color="#1A51CB"/>
<stop offset="0.5" stop-color="#3B66C8"/>
<stop offset="0.75" stop-color="#1A51CB"/>
<stop offset="1" stop-color="#0032A3"/>
</linearGradient>
<linearGradient id="paint13_linear_7298_123496" x1="38.4463" y1="17.2841" x2="43.4155" y2="17.2841" gradientUnits="userSpaceOnUse">
<stop stop-color="#0032A3"/>
<stop offset="0.25" stop-color="#1A51CB"/>
<stop offset="0.5" stop-color="#3B66C8"/>
<stop offset="0.75" stop-color="#1A51CB"/>
<stop offset="1" stop-color="#0032A3"/>
</linearGradient>
<linearGradient id="paint14_linear_7298_123496" x1="34.792" y1="18.622" x2="39.7612" y2="18.622" gradientUnits="userSpaceOnUse">
<stop stop-color="#0032A3"/>
<stop offset="0.25" stop-color="#1A51CB"/>
<stop offset="0.5" stop-color="#3B66C8"/>
<stop offset="0.75" stop-color="#1A51CB"/>
<stop offset="1" stop-color="#0032A3"/>
</linearGradient>
<linearGradient id="paint15_linear_7298_123496" x1="3.6416" y1="18.1959" x2="14.2541" y2="18.1959" gradientUnits="userSpaceOnUse">
<stop stop-color="#0032A3"/>
<stop offset="0.25" stop-color="#1A51CB"/>
<stop offset="0.5" stop-color="#3B66C8"/>
<stop offset="0.75" stop-color="#1A51CB"/>
<stop offset="1" stop-color="#0032A3"/>
</linearGradient>
<linearGradient id="paint16_linear_7298_123496" x1="7.94824" y1="17.2841" x2="12.9174" y2="17.2841" gradientUnits="userSpaceOnUse">
<stop stop-color="#0032A3"/>
<stop offset="0.25" stop-color="#1A51CB"/>
<stop offset="0.5" stop-color="#3B66C8"/>
<stop offset="0.75" stop-color="#1A51CB"/>
<stop offset="1" stop-color="#0032A3"/>
</linearGradient>
<linearGradient id="paint17_linear_7298_123496" x1="4.29199" y1="18.622" x2="9.26116" y2="18.622" gradientUnits="userSpaceOnUse">
<stop stop-color="#0032A3"/>
<stop offset="0.25" stop-color="#1A51CB"/>
<stop offset="0.5" stop-color="#3B66C8"/>
<stop offset="0.75" stop-color="#1A51CB"/>
<stop offset="1" stop-color="#0032A3"/>
</linearGradient>
<linearGradient id="paint18_linear_7298_123496" x1="1.15918" y1="9.57639" x2="5.82005" y2="9.57639" gradientUnits="userSpaceOnUse">
<stop stop-color="#FFC136"/>
<stop offset="0.197568" stop-color="#FAC142"/>
<stop offset="0.525" stop-color="#FFD168"/>
<stop offset="0.771328" stop-color="#F5BC3A"/>
<stop offset="1" stop-color="#E09B00"/>
</linearGradient>
<linearGradient id="paint19_linear_7298_123496" x1="1.15918" y1="9.57639" x2="5.82005" y2="9.57639" gradientUnits="userSpaceOnUse">
<stop stop-color="#0032A3"/>
<stop offset="0.25" stop-color="#1A51CB"/>
<stop offset="0.5" stop-color="#3B66C8"/>
<stop offset="0.75" stop-color="#1A51CB"/>
<stop offset="1" stop-color="#0032A3"/>
</linearGradient>
<linearGradient id="paint20_linear_7298_123496" x1="5.71777" y1="9.57639" x2="10.3786" y2="9.57639" gradientUnits="userSpaceOnUse">
<stop stop-color="#0032A3"/>
<stop offset="0.25" stop-color="#1A51CB"/>
<stop offset="0.5" stop-color="#3B66C8"/>
<stop offset="0.75" stop-color="#1A51CB"/>
<stop offset="1" stop-color="#0032A3"/>
</linearGradient>
<linearGradient id="paint21_linear_7298_123496" x1="10.2764" y1="9.57615" x2="14.9372" y2="9.57615" gradientUnits="userSpaceOnUse">
<stop stop-color="#FFC136"/>
<stop offset="0.197568" stop-color="#FAC142"/>
<stop offset="0.525" stop-color="#FFD168"/>
<stop offset="0.771328" stop-color="#F5BC3A"/>
<stop offset="1" stop-color="#E09B00"/>
</linearGradient>
<linearGradient id="paint22_linear_7298_123496" x1="10.2764" y1="9.57615" x2="14.9372" y2="9.57615" gradientUnits="userSpaceOnUse">
<stop stop-color="#0032A3"/>
<stop offset="0.25" stop-color="#1A51CB"/>
<stop offset="0.5" stop-color="#3B66C8"/>
<stop offset="0.75" stop-color="#1A51CB"/>
<stop offset="1" stop-color="#0032A3"/>
</linearGradient>
<linearGradient id="paint23_linear_7298_123496" x1="14.833" y1="9.57639" x2="19.4939" y2="9.57639" gradientUnits="userSpaceOnUse">
<stop stop-color="#0032A3"/>
<stop offset="0.25" stop-color="#1A51CB"/>
<stop offset="0.5" stop-color="#3B66C8"/>
<stop offset="0.75" stop-color="#1A51CB"/>
<stop offset="1" stop-color="#0032A3"/>
</linearGradient>
<linearGradient id="paint24_linear_7298_123496" x1="19.3916" y1="9.57615" x2="24.0525" y2="9.57615" gradientUnits="userSpaceOnUse">
<stop stop-color="#FFC136"/>
<stop offset="0.197568" stop-color="#FAC142"/>
<stop offset="0.525" stop-color="#FFD168"/>
<stop offset="0.771328" stop-color="#F5BC3A"/>
<stop offset="1" stop-color="#E09B00"/>
</linearGradient>
<linearGradient id="paint25_linear_7298_123496" x1="19.3916" y1="9.57615" x2="24.0525" y2="9.57615" gradientUnits="userSpaceOnUse">
<stop stop-color="#0032A3"/>
<stop offset="0.25" stop-color="#1A51CB"/>
<stop offset="0.5" stop-color="#3B66C8"/>
<stop offset="0.75" stop-color="#1A51CB"/>
<stop offset="1" stop-color="#0032A3"/>
</linearGradient>
<linearGradient id="paint26_linear_7298_123496" x1="23.9502" y1="9.57639" x2="28.6111" y2="9.57639" gradientUnits="userSpaceOnUse">
<stop stop-color="#0032A3"/>
<stop offset="0.25" stop-color="#1A51CB"/>
<stop offset="0.5" stop-color="#3B66C8"/>
<stop offset="0.75" stop-color="#1A51CB"/>
<stop offset="1" stop-color="#0032A3"/>
</linearGradient>
<linearGradient id="paint27_linear_7298_123496" x1="28.5068" y1="9.57615" x2="33.1677" y2="9.57615" gradientUnits="userSpaceOnUse">
<stop stop-color="#FFC136"/>
<stop offset="0.197568" stop-color="#FAC142"/>
<stop offset="0.525" stop-color="#FFD168"/>
<stop offset="0.771328" stop-color="#F5BC3A"/>
<stop offset="1" stop-color="#E09B00"/>
</linearGradient>
<linearGradient id="paint28_linear_7298_123496" x1="28.5068" y1="9.57615" x2="33.1677" y2="9.57615" gradientUnits="userSpaceOnUse">
<stop stop-color="#0032A3"/>
<stop offset="0.25" stop-color="#1A51CB"/>
<stop offset="0.5" stop-color="#3B66C8"/>
<stop offset="0.75" stop-color="#1A51CB"/>
<stop offset="1" stop-color="#0032A3"/>
</linearGradient>
<linearGradient id="paint29_linear_7298_123496" x1="33.0654" y1="9.57639" x2="37.7263" y2="9.57639" gradientUnits="userSpaceOnUse">
<stop stop-color="#0032A3"/>
<stop offset="0.25" stop-color="#1A51CB"/>
<stop offset="0.5" stop-color="#3B66C8"/>
<stop offset="0.75" stop-color="#1A51CB"/>
<stop offset="1" stop-color="#0032A3"/>
</linearGradient>
<linearGradient id="paint30_linear_7298_123496" x1="37.624" y1="9.57639" x2="42.2849" y2="9.57639" gradientUnits="userSpaceOnUse">
<stop stop-color="#FFC136"/>
<stop offset="0.197568" stop-color="#FAC142"/>
<stop offset="0.525" stop-color="#FFD168"/>
<stop offset="0.771328" stop-color="#F5BC3A"/>
<stop offset="1" stop-color="#E09B00"/>
</linearGradient>
<linearGradient id="paint31_linear_7298_123496" x1="37.624" y1="9.57639" x2="42.2849" y2="9.57639" gradientUnits="userSpaceOnUse">
<stop stop-color="#0032A3"/>
<stop offset="0.25" stop-color="#1A51CB"/>
<stop offset="0.5" stop-color="#3B66C8"/>
<stop offset="0.75" stop-color="#1A51CB"/>
<stop offset="1" stop-color="#0032A3"/>
</linearGradient>
<linearGradient id="paint32_linear_7298_123496" x1="42.1826" y1="9.57639" x2="46.8435" y2="9.57639" gradientUnits="userSpaceOnUse">
<stop stop-color="#0032A3"/>
<stop offset="0.25" stop-color="#1A51CB"/>
<stop offset="0.5" stop-color="#3B66C8"/>
<stop offset="0.75" stop-color="#1A51CB"/>
<stop offset="1" stop-color="#0032A3"/>
</linearGradient>
<linearGradient id="paint33_linear_7298_123496" x1="1.15918" y1="3.62326" x2="5.82005" y2="3.62326" gradientUnits="userSpaceOnUse">
<stop stop-color="#FFC136"/>
<stop offset="0.197568" stop-color="#FAC142"/>
<stop offset="0.525" stop-color="#FFD168"/>
<stop offset="0.771328" stop-color="#F5BC3A"/>
<stop offset="1" stop-color="#E09B00"/>
</linearGradient>
<linearGradient id="paint34_linear_7298_123496" x1="1.15918" y1="3.62326" x2="5.82005" y2="3.62326" gradientUnits="userSpaceOnUse">
<stop stop-color="#0032A3"/>
<stop offset="0.25" stop-color="#1A51CB"/>
<stop offset="0.5" stop-color="#3B66C8"/>
<stop offset="0.75" stop-color="#1A51CB"/>
<stop offset="1" stop-color="#0032A3"/>
</linearGradient>
<linearGradient id="paint35_linear_7298_123496" x1="5.71777" y1="3.62326" x2="10.3786" y2="3.62326" gradientUnits="userSpaceOnUse">
<stop stop-color="#0032A3"/>
<stop offset="0.25" stop-color="#1A51CB"/>
<stop offset="0.5" stop-color="#3B66C8"/>
<stop offset="0.75" stop-color="#1A51CB"/>
<stop offset="1" stop-color="#0032A3"/>
</linearGradient>
<linearGradient id="paint36_linear_7298_123496" x1="10.2744" y1="3.62326" x2="14.9353" y2="3.62326" gradientUnits="userSpaceOnUse">
<stop stop-color="#FFC136"/>
<stop offset="0.197568" stop-color="#FAC142"/>
<stop offset="0.525" stop-color="#FFD168"/>
<stop offset="0.771328" stop-color="#F5BC3A"/>
<stop offset="1" stop-color="#E09B00"/>
</linearGradient>
<linearGradient id="paint37_linear_7298_123496" x1="10.2744" y1="3.62326" x2="14.9353" y2="3.62326" gradientUnits="userSpaceOnUse">
<stop stop-color="#0032A3"/>
<stop offset="0.25" stop-color="#1A51CB"/>
<stop offset="0.5" stop-color="#3B66C8"/>
<stop offset="0.75" stop-color="#1A51CB"/>
<stop offset="1" stop-color="#0032A3"/>
</linearGradient>
<linearGradient id="paint38_linear_7298_123496" x1="14.833" y1="3.62326" x2="19.4939" y2="3.62326" gradientUnits="userSpaceOnUse">
<stop stop-color="#0032A3"/>
<stop offset="0.25" stop-color="#1A51CB"/>
<stop offset="0.5" stop-color="#3B66C8"/>
<stop offset="0.75" stop-color="#1A51CB"/>
<stop offset="1" stop-color="#0032A3"/>
</linearGradient>
<linearGradient id="paint39_linear_7298_123496" x1="19.3916" y1="3.62326" x2="24.0525" y2="3.62326" gradientUnits="userSpaceOnUse">
<stop stop-color="#FFC136"/>
<stop offset="0.197568" stop-color="#FAC142"/>
<stop offset="0.525" stop-color="#FFD168"/>
<stop offset="0.771328" stop-color="#F5BC3A"/>
<stop offset="1" stop-color="#E09B00"/>
</linearGradient>
<linearGradient id="paint40_linear_7298_123496" x1="19.3916" y1="3.62326" x2="24.0525" y2="3.62326" gradientUnits="userSpaceOnUse">
<stop stop-color="#0032A3"/>
<stop offset="0.25" stop-color="#1A51CB"/>
<stop offset="0.5" stop-color="#3B66C8"/>
<stop offset="0.75" stop-color="#1A51CB"/>
<stop offset="1" stop-color="#0032A3"/>
</linearGradient>
<linearGradient id="paint41_linear_7298_123496" x1="23.9502" y1="3.62326" x2="28.6111" y2="3.62326" gradientUnits="userSpaceOnUse">
<stop stop-color="#0032A3"/>
<stop offset="0.25" stop-color="#1A51CB"/>
<stop offset="0.5" stop-color="#3B66C8"/>
<stop offset="0.75" stop-color="#1A51CB"/>
<stop offset="1" stop-color="#0032A3"/>
</linearGradient>
<linearGradient id="paint42_linear_7298_123496" x1="28.5088" y1="3.62326" x2="33.1697" y2="3.62326" gradientUnits="userSpaceOnUse">
<stop stop-color="#FFC136"/>
<stop offset="0.197568" stop-color="#FAC142"/>
<stop offset="0.525" stop-color="#FFD168"/>
<stop offset="0.771328" stop-color="#F5BC3A"/>
<stop offset="1" stop-color="#E09B00"/>
</linearGradient>
<linearGradient id="paint43_linear_7298_123496" x1="28.5088" y1="3.62326" x2="33.1697" y2="3.62326" gradientUnits="userSpaceOnUse">
<stop stop-color="#0032A3"/>
<stop offset="0.25" stop-color="#1A51CB"/>
<stop offset="0.5" stop-color="#3B66C8"/>
<stop offset="0.75" stop-color="#1A51CB"/>
<stop offset="1" stop-color="#0032A3"/>
</linearGradient>
<linearGradient id="paint44_linear_7298_123496" x1="33.0654" y1="3.62326" x2="37.7263" y2="3.62326" gradientUnits="userSpaceOnUse">
<stop stop-color="#0032A3"/>
<stop offset="0.25" stop-color="#1A51CB"/>
<stop offset="0.5" stop-color="#3B66C8"/>
<stop offset="0.75" stop-color="#1A51CB"/>
<stop offset="1" stop-color="#0032A3"/>
</linearGradient>
<linearGradient id="paint45_linear_7298_123496" x1="37.624" y1="3.62326" x2="42.2849" y2="3.62326" gradientUnits="userSpaceOnUse">
<stop stop-color="#FFC136"/>
<stop offset="0.197568" stop-color="#FAC142"/>
<stop offset="0.525" stop-color="#FFD168"/>
<stop offset="0.771328" stop-color="#F5BC3A"/>
<stop offset="1" stop-color="#E09B00"/>
</linearGradient>
<linearGradient id="paint46_linear_7298_123496" x1="37.624" y1="3.62326" x2="42.2849" y2="3.62326" gradientUnits="userSpaceOnUse">
<stop stop-color="#0032A3"/>
<stop offset="0.25" stop-color="#1A51CB"/>
<stop offset="0.5" stop-color="#3B66C8"/>
<stop offset="0.75" stop-color="#1A51CB"/>
<stop offset="1" stop-color="#0032A3"/>
</linearGradient>
<linearGradient id="paint47_linear_7298_123496" x1="42.1826" y1="3.62326" x2="46.8435" y2="3.62326" gradientUnits="userSpaceOnUse">
<stop stop-color="#0032A3"/>
<stop offset="0.25" stop-color="#1A51CB"/>
<stop offset="0.5" stop-color="#3B66C8"/>
<stop offset="0.75" stop-color="#1A51CB"/>
<stop offset="1" stop-color="#0032A3"/>
</linearGradient>
</defs>
</svg>
