<svg width="50" height="34" viewBox="0 0 50 34" fill="none" xmlns="http://www.w3.org/2000/svg">
<path fill-rule="evenodd" clip-rule="evenodd" d="M24.3283 9.36011L19.9383 10.0701C19.9383 11.4801 20.9683 11.0701 20.9683 12.8001L16.1283 25.7001L11.0583 9.36011L4.23828 10.0501C4.23828 11.3001 5.80828 10.9201 6.16828 11.6501L13.4783 31.9801H15.4283L24.2983 9.47011C24.3283 9.44011 24.3283 9.41011 24.3283 9.39011V9.36011Z" fill="#3E4097"/>
<path fill-rule="evenodd" clip-rule="evenodd" d="M25.7422 9.39022V31.9902L36.1822 31.9102C36.9722 31.9002 37.7722 31.9402 38.5522 31.8002C43.2022 30.9602 49.1422 25.1602 43.3822 19.8802C45.4322 17.8602 45.9322 12.3602 40.8522 10.0702C39.1522 9.30022 38.3722 9.36022 36.5922 9.36022L25.7422 9.39022Z" fill="#EEA500"/>
<path fill-rule="evenodd" clip-rule="evenodd" d="M33.5666 8.83005C33.9766 7.39005 34.7966 6.21005 35.9466 5.62005C36.8766 5.11005 38.2266 5.88005 37.1666 7.04005C36.1966 7.93005 35.0066 8.70005 33.5666 8.83005ZM32.1566 8.68005C31.9566 7.02005 30.6266 3.50005 28.6966 3.23005C28.3066 3.17005 27.9166 3.27005 27.7566 3.56005C27.0266 4.96005 30.5866 8.19005 32.1566 8.68005ZM32.3166 9.73005C29.9066 8.92005 28.5766 8.47005 26.8566 5.45005C26.3866 4.62005 26.2666 3.69005 26.8466 2.73005C27.3566 1.90005 28.5766 1.84005 29.6966 2.32005C31.6766 3.16005 32.2066 5.23005 33.0466 7.07005C34.1866 5.07005 35.4066 4.06005 37.3866 4.55005C39.1666 5.32005 39.0966 6.68005 37.8666 7.80005C36.7266 8.83005 35.2866 9.55005 33.6166 9.80005L33.6666 15.4601H44.8066C44.8466 15.9501 44.8166 16.3401 44.7666 16.7801H33.6866L33.8166 31.9301L32.4966 31.9401L32.3666 16.7701H25.7266V15.4501H32.3466L32.3166 9.73005Z" fill="#3E4093"/>
</svg>
