<svg width="21" height="8" viewBox="0 0 21 8" fill="none" xmlns="http://www.w3.org/2000/svg">
<g id="logos:visa" clip-path="url(#clip0_7298_122504)">
<path id="Vector" d="M10.8397 2.83534C10.8284 3.72501 11.6326 4.22145 12.2383 4.51665C12.8607 4.81949 13.0697 5.01371 13.0673 5.28456C13.0626 5.69904 12.5708 5.88198 12.1106 5.88909C11.3077 5.90152 10.8408 5.67231 10.4697 5.49895L10.1805 6.85238C10.5528 7.02397 11.2423 7.17361 11.9573 7.18018C13.6357 7.18018 14.7337 6.35169 14.7397 5.06717C14.7463 3.43693 12.4848 3.34669 12.5002 2.61802C12.5055 2.39707 12.7164 2.16129 13.1784 2.10134C13.407 2.07105 14.0383 2.04788 14.754 2.37745L15.0349 1.06797C14.65 0.927832 14.1553 0.79364 13.5395 0.79364C11.9597 0.79364 10.8487 1.6334 10.8397 2.83534ZM17.734 0.906432C17.4276 0.906432 17.1693 1.0852 17.054 1.35953L14.6566 7.08399H16.3337L16.6674 6.16164H18.7169L18.9105 7.08399H20.3887L19.0987 0.906432H17.734ZM17.9687 2.57522L18.4527 4.89497H17.1271L17.9687 2.57522ZM8.80626 0.906509L7.48426 7.08392H9.08244L10.4038 0.906355L8.80626 0.906509ZM6.44201 0.906509L4.77855 5.11113L4.10566 1.53599C4.02671 1.13688 3.7149 0.906432 3.36865 0.906432H0.649415L0.611328 1.08582C1.16957 1.20695 1.80384 1.40233 2.18811 1.61139C2.42327 1.73909 2.49033 1.85072 2.56759 2.15418L3.84207 7.08399H5.53094L8.12023 0.906432L6.44201 0.906509Z" fill="url(#paint0_linear_7298_122504)"/>
</g>
<defs>
<linearGradient id="paint0_linear_7298_122504" x1="909.855" y1="19.9916" x2="928.341" y2="-635.915" gradientUnits="userSpaceOnUse">
<stop stop-color="#222357"/>
<stop offset="1" stop-color="#254AA5"/>
</linearGradient>
<clipPath id="clip0_7298_122504">
<rect width="19.7773" height="6.41219" fill="white" transform="translate(0.611328 0.793945)"/>
</clipPath>
</defs>
</svg>
