<svg width="25" height="14" viewBox="0 0 25 14" fill="none" xmlns="http://www.w3.org/2000/svg">
<g id="lineicons:apple-pay">
<path id="Vector" d="M7.25074 6.18079C7.26296 7.30521 8.27128 7.67798 8.27943 7.68307C8.27128 7.70752 8.11748 8.21779 7.74879 8.7413C7.42898 9.19351 7.09695 9.64572 6.57446 9.65387C6.05909 9.66202 5.89308 9.35851 5.30846 9.35851C4.71875 9.35851 4.53644 9.64573 4.05061 9.66202C3.54442 9.67832 3.16248 9.17314 2.8386 8.71991C2.17861 7.79918 1.6775 6.11356 2.35379 4.97692C2.68989 4.41267 3.29081 4.05518 3.94265 4.04295C4.43662 4.03481 4.90615 4.36684 5.20865 4.36684C5.51114 4.36684 6.08048 3.9686 6.67732 4.02666C6.92686 4.03481 7.63268 4.12647 8.08082 4.76507C8.04313 4.78544 7.24259 5.23867 7.25074 6.18079ZM6.28316 3.41658C6.55307 3.10084 6.73131 2.66492 6.68242 2.229C6.29539 2.24632 5.82688 2.47854 5.5529 2.79427C5.30439 3.07232 5.08846 3.51639 5.1455 3.94314C5.57836 3.97675 6.01835 3.73129 6.28316 3.41658ZM10.1657 2.87677C10.3633 2.84418 10.5863 2.81566 10.8257 2.78714C11.0654 2.7593 11.3285 2.74572 11.615 2.7464C12.0258 2.74708 12.3799 2.79461 12.6773 2.88899C12.9747 2.98779 13.2181 3.12325 13.4116 3.30861C13.576 3.46954 13.705 3.65966 13.7987 3.87897C13.891 4.09965 13.9372 4.3536 13.9372 4.64081C13.9372 4.98914 13.874 5.29401 13.7478 5.55543C13.6285 5.81123 13.4518 6.03605 13.2314 6.21236C12.9997 6.39489 12.7342 6.52988 12.4502 6.60957C12.129 6.69967 11.7968 6.74424 11.4633 6.74198C11.1913 6.74533 10.9197 6.72145 10.6525 6.67068V9.55915H10.1708V2.87779L10.1657 2.87677ZM10.6485 6.24903C10.7666 6.2823 10.897 6.30572 11.0396 6.3193C11.1835 6.33152 11.3373 6.33831 11.5009 6.33967C12.1168 6.34035 12.5941 6.19946 12.933 5.91699C13.2725 5.63725 13.4419 5.22577 13.4412 4.68257C13.4412 4.42048 13.3964 4.19335 13.3067 4.00119C13.2231 3.81349 13.0935 3.6499 12.9299 3.52555C12.7543 3.39658 12.556 3.3019 12.3453 3.24649C12.1 3.18197 11.8472 3.15046 11.5936 3.15278C11.3757 3.15278 11.1866 3.16093 11.0263 3.17723C10.9001 3.19018 10.7744 3.20785 10.6495 3.23019L10.6485 6.24903ZM17.7749 8.41436C17.7756 8.60923 17.7783 8.80343 17.7831 8.99694C17.7912 9.19113 17.8123 9.37854 17.8462 9.55915H17.393L17.3217 8.87879H17.3003C17.2332 8.98053 17.1542 9.07387 17.065 9.15684C16.9652 9.2553 16.8545 9.34017 16.733 9.41147C16.5987 9.49344 16.4532 9.55554 16.3011 9.59582C16.1416 9.64199 15.965 9.66542 15.7715 9.6661C15.5325 9.6661 15.3227 9.62773 15.1421 9.551C14.9748 9.48261 14.8234 9.3807 14.697 9.25157C14.579 9.13078 14.4899 8.98489 14.4363 8.82481C14.3794 8.67119 14.3494 8.50891 14.3477 8.3451C14.3477 7.7761 14.5928 7.33848 15.083 7.03225C15.5726 6.72467 16.3103 6.57698 17.2962 6.5892V6.45782C17.2962 6.3322 17.2836 6.18758 17.2585 6.02394C17.2352 5.8591 17.1809 5.70015 17.0986 5.55543C17.0095 5.40249 16.8821 5.27541 16.7289 5.18673C16.5653 5.08692 16.3429 5.03633 16.0618 5.03497C15.6346 5.03535 15.2168 5.16068 14.86 5.39552L14.7051 5.04312C14.9238 4.89646 15.1492 4.79121 15.3814 4.72739C15.6123 4.6656 15.8557 4.63402 16.1117 4.63266C16.4553 4.63266 16.7337 4.69038 16.9469 4.80581C17.1608 4.91988 17.3339 5.06756 17.4561 5.24784C17.577 5.42845 17.6608 5.6308 17.7077 5.85487C17.7532 6.08029 17.7756 6.30335 17.7749 6.52402V8.41436ZM17.2921 6.98336C17.0202 6.97732 16.7482 6.98684 16.4773 7.01188C16.1922 7.0404 15.9304 7.09913 15.6921 7.18808C15.4644 7.27127 15.2599 7.40743 15.0952 7.5853C14.9397 7.7598 14.8617 7.99134 14.861 8.27992C14.861 8.62077 14.9601 8.87065 15.1584 9.02953C15.3553 9.19046 15.578 9.27126 15.8265 9.27194C16.0248 9.27126 16.2023 9.2441 16.3592 9.19046C16.5154 9.13614 16.6525 9.06348 16.7707 8.9725C16.8875 8.88151 16.9856 8.77898 17.065 8.66491C17.1412 8.5564 17.2019 8.43778 17.2453 8.31251C17.2731 8.21762 17.2902 8.11991 17.2962 8.02122L17.2921 6.98336ZM18.715 4.74368L19.9667 7.87353C20.1014 8.21702 20.2217 8.566 20.3273 8.91953H20.3487C20.4621 8.5621 20.5854 8.20787 20.7184 7.85724L21.8896 4.74776H22.402L20.974 8.27992C20.8301 8.65337 20.6943 8.99219 20.5666 9.29638C20.4503 9.57699 20.3215 9.85226 20.1806 10.1214C20.0624 10.3453 19.9304 10.5616 19.7854 10.7691C19.6586 10.9511 19.5094 11.1163 19.3414 11.2611C19.1478 11.4295 18.9713 11.5513 18.8117 11.6267C18.707 11.6804 18.5992 11.728 18.4889 11.7693L18.3249 11.3802C18.4471 11.3273 18.5843 11.2577 18.7364 11.1714C18.8878 11.0838 19.0348 10.9701 19.1774 10.8302C19.3003 10.7114 19.4361 10.5529 19.5848 10.3546C19.7308 10.1584 19.8622 9.91902 19.9789 9.63656C20.0093 9.57011 20.0305 9.49988 20.0421 9.42777C20.0337 9.35494 20.0123 9.28422 19.9789 9.21897L18.2027 4.7559H18.715V4.74368Z" fill="black"/>
</g>
</svg>
