<svg width="49" height="49" viewBox="0 0 49 49" fill="none" xmlns="http://www.w3.org/2000/svg">
<g id="lineicons:apple-pay">
<path id="Vector" d="M14.6869 22.7032C14.7109 24.9112 16.6909 25.6432 16.7069 25.6532C16.6909 25.7012 16.3889 26.7032 15.6649 27.7312C15.0369 28.6192 14.3849 29.5072 13.3589 29.5232C12.3469 29.5392 12.0209 28.9432 10.8729 28.9432C9.7149 28.9432 9.3569 29.5072 8.4029 29.5392C7.4089 29.5712 6.6589 28.5792 6.0229 27.6892C4.7269 25.8812 3.7429 22.5712 5.0709 20.3392C5.7309 19.2312 6.9109 18.5292 8.1909 18.5052C9.1609 18.4892 10.0829 19.1412 10.6769 19.1412C11.2709 19.1412 12.3889 18.3592 13.5609 18.4732C14.0509 18.4892 15.4369 18.6692 16.3169 19.9232C16.2429 19.9632 14.6709 20.8532 14.6869 22.7032ZM12.7869 17.2752C13.3169 16.6552 13.6669 15.7992 13.5709 14.9432C12.8109 14.9772 11.8909 15.4332 11.3529 16.0532C10.8649 16.5992 10.4409 17.4712 10.5529 18.3092C11.4029 18.3752 12.2669 17.8932 12.7869 17.2752ZM20.4109 16.2152C20.7989 16.1512 21.2369 16.0952 21.7069 16.0392C22.1776 15.9846 22.6942 15.9579 23.2569 15.9592C24.0636 15.9606 24.7589 16.0539 25.3429 16.2392C25.9269 16.4332 26.4049 16.6992 26.7849 17.0632C27.1076 17.3792 27.3609 17.7526 27.5449 18.1832C27.7262 18.6166 27.8169 19.1152 27.8169 19.6792C27.8169 20.3632 27.6929 20.9619 27.4449 21.4752C27.2107 21.9776 26.8637 22.419 26.4309 22.7652C25.9759 23.1237 25.4546 23.3887 24.8969 23.5452C24.2662 23.7221 23.6139 23.8097 22.9589 23.8052C22.4249 23.8118 21.8916 23.7649 21.3669 23.6652V29.3372H20.4209V16.2172L20.4109 16.2152ZM21.3589 22.8372C21.5909 22.9026 21.8469 22.9486 22.1269 22.9752C22.4096 22.9992 22.7116 23.0126 23.0329 23.0152C24.2422 23.0166 25.1796 22.7399 25.8449 22.1852C26.5116 21.6359 26.8442 20.8279 26.8429 19.7612C26.8429 19.2466 26.7549 18.8006 26.5789 18.4232C26.4147 18.0546 26.1602 17.7334 25.8389 17.4892C25.4941 17.236 25.1046 17.0501 24.6909 16.9412C24.2093 16.8145 23.7129 16.7527 23.2149 16.7572C22.7869 16.7572 22.4156 16.7732 22.1009 16.8052C21.853 16.8307 21.6062 16.8654 21.3609 16.9092L21.3589 22.8372ZM35.3529 27.0892C35.3542 27.4719 35.3596 27.8532 35.3689 28.2332C35.3849 28.6146 35.4262 28.9826 35.4929 29.3372H34.6029L34.4629 28.0012H34.4209C34.2892 28.201 34.1341 28.3843 33.9589 28.5472C33.7629 28.7406 33.5456 28.9072 33.3069 29.0472C33.0432 29.2082 32.7576 29.3301 32.4589 29.4092C32.1456 29.4999 31.7989 29.5459 31.4189 29.5472C30.9496 29.5472 30.5376 29.4719 30.1829 29.3212C29.8545 29.1869 29.5571 28.9868 29.3089 28.7332C29.0773 28.4961 28.9022 28.2096 28.7969 27.8952C28.6852 27.5936 28.6264 27.2749 28.6229 26.9532C28.6229 25.8359 29.1042 24.9766 30.0669 24.3752C31.0282 23.7712 32.4769 23.4812 34.4129 23.5052V23.2472C34.4129 23.0006 34.3882 22.7166 34.3389 22.3952C34.293 22.0716 34.1865 21.7594 34.0249 21.4752C33.8499 21.1749 33.5997 20.9254 33.2989 20.7512C32.9776 20.5552 32.5409 20.4559 31.9889 20.4532C31.15 20.454 30.3297 20.7001 29.6289 21.1612L29.3249 20.4692C29.7542 20.1812 30.1969 19.9746 30.6529 19.8492C31.1062 19.7279 31.5842 19.6659 32.0869 19.6632C32.7616 19.6632 33.3082 19.7766 33.7269 20.0032C34.1469 20.2272 34.4869 20.5172 34.7269 20.8712C34.9642 21.2259 35.1289 21.6232 35.2209 22.0632C35.3102 22.5059 35.3542 22.9439 35.3529 23.3772V27.0892ZM34.4049 24.2792C33.8709 24.2674 33.3367 24.2861 32.8049 24.3352C32.2449 24.3912 31.7309 24.5066 31.2629 24.6812C30.8159 24.8446 30.4142 25.112 30.0909 25.4612C29.7856 25.8039 29.6322 26.2586 29.6309 26.8252C29.6309 27.4946 29.8256 27.9852 30.2149 28.2972C30.6016 28.6132 31.0389 28.7719 31.5269 28.7732C31.9162 28.7719 32.2649 28.7186 32.5729 28.6132C32.8796 28.5066 33.1489 28.3639 33.3809 28.1852C33.6102 28.0066 33.8029 27.8052 33.9589 27.5812C34.1085 27.3682 34.2276 27.1352 34.3129 26.8892C34.3675 26.7029 34.401 26.511 34.4129 26.3172L34.4049 24.2792ZM37.1989 19.8812L39.6569 26.0272C39.9214 26.7017 40.1576 27.387 40.3649 28.0812H40.4069C40.6296 27.3794 40.8717 26.6838 41.1329 25.9952L43.4329 19.8892H44.4389L41.6349 26.8252C41.3522 27.5586 41.0856 28.2239 40.8349 28.8212C40.6065 29.3723 40.3536 29.9128 40.0769 30.4412C39.8448 30.8809 39.5857 31.3057 39.3009 31.7132C39.0518 32.0705 38.7589 32.395 38.4289 32.6792C38.0489 33.0099 37.7022 33.2492 37.3889 33.3972C37.1831 33.5027 36.9714 33.5962 36.7549 33.6772L36.4329 32.9132C36.6729 32.8092 36.9422 32.6726 37.2409 32.5032C37.5382 32.3312 37.8269 32.1079 38.1069 31.8332C38.3482 31.5999 38.6149 31.2886 38.9069 30.8992C39.1936 30.5139 39.4516 30.0439 39.6809 29.4892C39.7404 29.3587 39.7821 29.2208 39.8049 29.0792C39.7885 28.9362 39.7465 28.7974 39.6809 28.6692L36.1929 19.9052H37.1989V19.8812Z" fill="black"/>
</g>
</svg>
