<svg width="36" height="29" viewBox="0 0 36 29" fill="none" xmlns="http://www.w3.org/2000/svg">
<g id="logos:mastercard" clip-path="url(#clip0_10928_30868)">
<path id="Vector" d="M6.54558 28.1643V26.3121C6.54558 25.602 6.1133 25.1391 5.37234 25.1391C5.00194 25.1391 4.60059 25.2625 4.32272 25.6639C4.10672 25.3243 3.79805 25.1391 3.33497 25.1391C3.02616 25.1391 2.71763 25.2316 2.47055 25.5712V25.2008H1.82227V28.1643H2.47055V26.5281C2.47055 26.0035 2.74842 25.7564 3.1807 25.7564C3.6127 25.7564 3.82898 26.0343 3.82898 26.5281V28.1643H4.47727V26.5281C4.47727 26.0035 4.7858 25.7564 5.18714 25.7564C5.61942 25.7564 5.83542 26.0343 5.83542 26.5281V28.1643H6.54558ZM16.1462 25.2008H15.0967V24.3056H14.4484V25.2008H13.8619V25.7872H14.4483V27.1456C14.4483 27.8248 14.7262 28.2261 15.4671 28.2261C15.745 28.2261 16.0535 28.1335 16.2698 28.0101L16.0845 27.4543C15.8993 27.5778 15.6832 27.6087 15.5288 27.6087C15.2202 27.6087 15.0967 27.4235 15.0967 27.1147V25.7872H16.1462V25.2008ZM21.6413 25.1389C21.2708 25.1389 21.0239 25.3243 20.8695 25.5712V25.2008H20.2212V28.1643H20.8695V26.4973C20.8695 26.0035 21.0855 25.7256 21.4868 25.7256C21.6103 25.7256 21.7647 25.7565 21.8882 25.7873L22.0734 25.17C21.9499 25.1391 21.7647 25.1391 21.6413 25.1391M13.3371 25.4479C13.0282 25.2317 12.5961 25.1392 12.133 25.1392C11.3922 25.1392 10.8983 25.5096 10.8983 26.0961C10.8983 26.5902 11.2688 26.8679 11.917 26.9606L12.2257 26.9915C12.5653 27.0531 12.7505 27.1458 12.7505 27.3002C12.7505 27.5162 12.5036 27.6706 12.0713 27.6706C11.639 27.6706 11.2995 27.5162 11.0834 27.3619L10.7747 27.8558C11.1143 28.1027 11.5774 28.2262 12.0404 28.2262C12.9048 28.2262 13.3988 27.825 13.3988 27.2692C13.3988 26.7444 12.9975 26.4666 12.38 26.374L12.0713 26.3431C11.7934 26.3121 11.5774 26.2506 11.5774 26.0653C11.5774 25.8492 11.7934 25.7257 12.133 25.7257C12.5036 25.7257 12.874 25.88 13.0592 25.9727L13.3371 25.4479ZM30.5629 25.1392C30.1924 25.1392 29.9454 25.3244 29.791 25.5713V25.2009H29.1428V28.1645H29.791V26.4975C29.791 26.0036 30.0072 25.7257 30.4084 25.7257C30.532 25.7257 30.6864 25.7567 30.8099 25.7875L30.9951 25.1701C30.8716 25.1392 30.6864 25.1392 30.5629 25.1392ZM22.2895 26.6827C22.2895 27.5779 22.9069 28.2262 23.864 28.2262C24.2961 28.2262 24.6048 28.1337 24.9135 27.8867L24.6048 27.3619C24.3578 27.5471 24.1109 27.6396 23.833 27.6396C23.3082 27.6396 22.9378 27.2692 22.9378 26.6827C22.9378 26.1271 23.3082 25.7565 23.833 25.7257C24.1109 25.7257 24.3578 25.8183 24.6048 26.0036L24.9135 25.4788C24.6048 25.2317 24.2961 25.1392 23.864 25.1392C22.9069 25.1392 22.2895 25.7875 22.2895 26.6827ZM28.2785 26.6827V25.2009H27.6302V25.5713C27.414 25.2936 27.1054 25.1392 26.704 25.1392C25.8705 25.1392 25.2223 25.7875 25.2223 26.6827C25.2223 27.5779 25.8705 28.2262 26.704 28.2262C27.1362 28.2262 27.445 28.0719 27.6302 27.7941V28.1645H28.2785V26.6827ZM25.9013 26.6827C25.9013 26.1579 26.241 25.7257 26.7966 25.7257C27.3214 25.7257 27.6919 26.1271 27.6919 26.6827C27.6919 27.2075 27.3214 27.6396 26.7966 27.6396C26.241 27.6087 25.9013 27.2075 25.9013 26.6827ZM18.1529 25.1392C17.2885 25.1392 16.671 25.7565 16.671 26.6827C16.671 27.6088 17.2883 28.2262 18.1837 28.2262C18.6158 28.2262 19.0481 28.1027 19.3877 27.825L19.0789 27.3619C18.832 27.5471 18.5233 27.6706 18.2146 27.6706C17.8133 27.6706 17.412 27.4854 17.3193 26.9604H19.5112V26.7136C19.5421 25.7565 18.9865 25.1392 18.1529 25.1392ZM18.1528 25.6948C18.554 25.6948 18.832 25.9419 18.8936 26.405H17.3501C17.4118 26.0036 17.6897 25.6948 18.1528 25.6948ZM34.2363 26.6827V24.0278H33.588V25.5713C33.3719 25.2936 33.0632 25.1392 32.6619 25.1392C31.8284 25.1392 31.1801 25.7875 31.1801 26.6827C31.1801 27.5779 31.8284 28.2262 32.6619 28.2262C33.0942 28.2262 33.4028 28.0719 33.588 27.7941V28.1645H34.2363V26.6827ZM31.8593 26.6827C31.8593 26.1579 32.1988 25.7257 32.7546 25.7257C33.2794 25.7257 33.6498 26.1271 33.6498 26.6827C33.6498 27.2075 33.2794 27.6396 32.7546 27.6396C32.1988 27.6087 31.8593 27.2075 31.8593 26.6827ZM10.188 26.6827V25.2009H9.53977V25.5713C9.32363 25.2936 9.01495 25.1392 8.61361 25.1392C7.78012 25.1392 7.13184 25.7875 7.13184 26.6827C7.13184 27.5779 7.78012 28.2262 8.61361 28.2262C9.04589 28.2262 9.35456 28.0719 9.53977 27.7941V28.1645H10.188V26.6827ZM7.78013 26.6827C7.78013 26.1579 8.11973 25.7257 8.67534 25.7257C9.20016 25.7257 9.5707 26.1271 9.5707 26.6827C9.5707 27.2075 9.20016 27.6396 8.67534 27.6396C8.11973 27.6087 7.78013 27.2075 7.78013 26.6827Z" fill="black"/>
<path id="Vector_2" d="M13.1191 2.69604H22.8434V20.1688H13.1191V2.69604Z" fill="#FF5F00"/>
<path id="Vector_3" d="M13.7375 11.4324C13.7375 7.88234 15.4045 4.73347 17.9667 2.69595C16.0837 1.21419 13.7067 0.31897 11.1136 0.31897C4.97011 0.31897 0 5.28908 0 11.4324C0 17.5758 4.97011 22.5459 11.1135 22.5459C13.7066 22.5459 16.0836 21.6507 17.9667 20.1688C15.4045 18.1622 13.7375 14.9825 13.7375 11.4324Z" fill="#EB001B"/>
<path id="Vector_4" d="M35.9647 11.4324C35.9647 17.5756 30.9946 22.5459 24.8513 22.5459C22.2581 22.5459 19.8812 21.6507 17.998 20.1688C20.5912 18.1314 22.2273 14.9825 22.2273 11.4324C22.2273 7.88234 20.5602 4.73347 17.998 2.69595C19.881 1.21419 22.2581 0.31897 24.8513 0.31897C30.9946 0.31897 35.9647 5.32002 35.9647 11.4324Z" fill="#F79E1B"/>
</g>
<defs>
<clipPath id="clip0_10928_30868">
<rect width="36" height="27.9844" fill="white" transform="translate(0 0.31897)"/>
</clipPath>
</defs>
</svg>
