<svg width="29" height="20" viewBox="0 0 29 20" fill="none" xmlns="http://www.w3.org/2000/svg">
<g id="logos:mastercard">
<g id="Group 95">
<path id="Vector" d="M6.67353 19.9006V18.5769C6.67353 18.0694 6.36459 17.7385 5.83504 17.7385C5.57031 17.7385 5.28348 17.8267 5.08489 18.1136C4.93052 17.8709 4.70991 17.7385 4.37896 17.7385C4.15825 17.7385 3.93775 17.8046 3.76117 18.0474V17.7826H3.29785V19.9006H3.76117V18.7313C3.76117 18.3563 3.95976 18.1797 4.26871 18.1797C4.57745 18.1797 4.73202 18.3783 4.73202 18.7313V19.9006H5.19534V18.7313C5.19534 18.3563 5.41584 18.1797 5.70268 18.1797C6.01162 18.1797 6.16599 18.3783 6.16599 18.7313V19.9006H6.67353ZM13.5349 17.7826H12.7849V17.1428H12.3216V17.7826H11.9024V18.2017H12.3215V19.1726C12.3215 19.658 12.5201 19.9447 13.0496 19.9447C13.2482 19.9447 13.4687 19.8786 13.6233 19.7904L13.4908 19.3932C13.3585 19.4814 13.2041 19.5035 13.0937 19.5035C12.8731 19.5035 12.7849 19.3712 12.7849 19.1505V18.2017H13.5349V17.7826ZM17.4622 17.7384C17.1975 17.7384 17.021 17.8709 16.9106 18.0474V17.7826H16.4473V19.9006H16.9106V18.7093C16.9106 18.3563 17.065 18.1577 17.3518 18.1577C17.4401 18.1577 17.5504 18.1798 17.6387 18.2018L17.771 17.7606C17.6828 17.7385 17.5504 17.7385 17.4622 17.7385M11.5273 17.9592C11.3066 17.8047 10.9978 17.7386 10.6668 17.7386C10.1373 17.7386 9.78438 18.0033 9.78438 18.4225C9.78438 18.7756 10.0491 18.9741 10.5124 19.0403L10.733 19.0624C10.9757 19.1064 11.1081 19.1727 11.1081 19.283C11.1081 19.4374 10.9316 19.5478 10.6227 19.5478C10.3138 19.5478 10.0711 19.4374 9.91665 19.3271L9.69604 19.6801C9.93876 19.8566 10.2697 19.9448 10.6006 19.9448C11.2184 19.9448 11.5714 19.6581 11.5714 19.2609C11.5714 18.8858 11.2846 18.6873 10.8433 18.6211L10.6227 18.599C10.4241 18.5769 10.2697 18.5329 10.2697 18.4005C10.2697 18.246 10.4241 18.1578 10.6668 18.1578C10.9316 18.1578 11.1963 18.2681 11.3287 18.3343L11.5273 17.9592ZM23.8384 17.7386C23.5735 17.7386 23.3971 17.871 23.2867 18.0475V17.7827H22.8234V19.9007H23.2867V18.7094C23.2867 18.3564 23.4412 18.1578 23.7279 18.1578C23.8162 18.1578 23.9266 18.1799 24.0148 18.2019L24.1472 17.7607C24.059 17.7386 23.9266 17.7386 23.8384 17.7386ZM17.9255 18.8417C17.9255 19.4815 18.3667 19.9448 19.0507 19.9448C19.3596 19.9448 19.5802 19.8787 19.8008 19.7022L19.5802 19.3271C19.4037 19.4595 19.2272 19.5256 19.0286 19.5256C18.6535 19.5256 18.3888 19.2609 18.3888 18.8417C18.3888 18.4446 18.6535 18.1798 19.0286 18.1578C19.2272 18.1578 19.4037 18.2239 19.5802 18.3564L19.8008 17.9813C19.5802 17.8047 19.3596 17.7386 19.0507 17.7386C18.3667 17.7386 17.9255 18.2019 17.9255 18.8417ZM22.2057 18.8417V17.7827H21.7424V18.0475C21.5879 17.849 21.3673 17.7386 21.0805 17.7386C20.4848 17.7386 20.0215 18.2019 20.0215 18.8417C20.0215 19.4815 20.4848 19.9448 21.0805 19.9448C21.3893 19.9448 21.61 19.8346 21.7424 19.636V19.9007H22.2057V18.8417ZM20.5068 18.8417C20.5068 18.4666 20.7495 18.1578 21.1466 18.1578C21.5217 18.1578 21.7865 18.4446 21.7865 18.8417C21.7865 19.2168 21.5217 19.5256 21.1466 19.5256C20.7495 19.5035 20.5068 19.2168 20.5068 18.8417ZM14.9691 17.7386C14.3513 17.7386 13.91 18.1798 13.91 18.8417C13.91 19.5036 14.3512 19.9448 14.9911 19.9448C15.3 19.9448 15.6089 19.8566 15.8516 19.6581L15.6309 19.3271C15.4544 19.4595 15.2338 19.5478 15.0132 19.5478C14.7264 19.5478 14.4396 19.4154 14.3733 19.0402H15.9399V18.8638C15.962 18.1798 15.5649 17.7386 14.9691 17.7386ZM14.969 18.1357C15.2557 18.1357 15.4544 18.3123 15.4985 18.6432H14.3953C14.4395 18.3564 14.6381 18.1357 14.969 18.1357ZM26.4637 18.8417V16.9443H26.0004V18.0475C25.8459 17.849 25.6253 17.7386 25.3385 17.7386C24.7428 17.7386 24.2795 18.2019 24.2795 18.8417C24.2795 19.4815 24.7428 19.9448 25.3385 19.9448C25.6474 19.9448 25.868 19.8346 26.0004 19.636V19.9007H26.4637V18.8417ZM24.7649 18.8417C24.7649 18.4666 25.0075 18.1578 25.4047 18.1578C25.7798 18.1578 26.0445 18.4446 26.0445 18.8417C26.0445 19.2168 25.7798 19.5256 25.4047 19.5256C25.0075 19.5035 24.7649 19.2168 24.7649 18.8417ZM9.27675 18.8417V17.7827H8.81343V18.0475C8.65896 17.849 8.43835 17.7386 8.15152 17.7386C7.55584 17.7386 7.09253 18.2019 7.09253 18.8417C7.09253 19.4815 7.55584 19.9448 8.15152 19.9448C8.46046 19.9448 8.68107 19.8346 8.81343 19.636V19.9007H9.27675V18.8417ZM7.55584 18.8417C7.55584 18.4666 7.79856 18.1578 8.19564 18.1578C8.57072 18.1578 8.83554 18.4446 8.83554 18.8417C8.83554 19.2168 8.57072 19.5256 8.19564 19.5256C7.79856 19.5035 7.55584 19.2168 7.55584 18.8417Z" fill="black"/>
<path id="Vector_2" d="M11.376 1.69873H18.3257V14.1863H11.376V1.69873Z" fill="#FF5F00"/>
<path id="Vector_3" d="M11.819 7.94261C11.819 5.40543 13.0103 3.15497 14.8415 1.69879C13.4957 0.639799 11.797 0 9.94369 0C5.55304 0 2.00098 3.55206 2.00098 7.94261C2.00098 12.3331 5.55304 15.8852 9.94359 15.8852C11.7969 15.8852 13.4956 15.2454 14.8415 14.1863C13.0103 12.7523 11.819 10.4798 11.819 7.94261Z" fill="#EB001B"/>
<path id="Vector_4" d="M27.7009 7.94261C27.7009 12.3331 24.1488 15.8852 19.7582 15.8852C17.905 15.8852 16.2062 15.2454 14.8604 14.1863C16.7136 12.7303 17.883 10.4798 17.883 7.94261C17.883 5.40543 16.6915 3.15497 14.8604 1.69879C16.2061 0.639799 17.905 0 19.7582 0C24.1488 0 27.7009 3.57417 27.7009 7.94261Z" fill="#F79E1B"/>
</g>
</g>
</svg>
